<svg width="1300" height="572" viewBox="0 0 1300 572" fill="none" xmlns="http://www.w3.org/2000/svg">
<g clip-path="url(#clip0_610_10723)">
<rect y="572" width="572" height="1300" rx="4" transform="rotate(-90 0 572)" fill="url(#paint0_linear_610_10723)"/>
<path d="M80.7439 281.69C95.9201 274.46 112.574 270.873 129.381 271.214L128.772 301.224C116.637 300.978 104.611 303.568 93.6529 308.788L80.7439 281.69Z" fill="#003F9E"/>
<path d="M604.969 147.613C615.762 165.402 621.187 185.93 620.591 206.729L590.587 205.869C591.018 190.851 587.1 176.028 579.307 163.184L604.969 147.613Z" fill="#003F9E"/>
<path d="M473.969 18.6134C484.762 36.4022 490.187 56.9302 489.591 77.7288L459.587 76.8692C460.018 61.8511 456.1 47.0285 448.307 34.1837L473.969 18.6134Z" fill="#003F9E"/>
<path d="M1130.97 24.6134C1141.76 42.4022 1147.19 62.9302 1146.59 83.7288L1116.59 82.8692C1117.02 67.8511 1113.1 53.0285 1105.31 40.1837L1130.97 24.6134Z" fill="#003F9E"/>
<path d="M950.677 177.584C961.355 163.261 975.867 151.835 992.782 144.431C1009.7 137.027 1028.43 133.9 1047.14 135.36L1045 163.355C1031.49 162.301 1017.96 164.559 1005.75 169.905C993.532 175.251 983.054 183.502 975.343 193.843L950.677 177.584Z" fill="#003F9E"/>
<path d="M744.01 138.074C762.668 140.082 780.482 146.917 795.694 157.906C810.907 168.894 822.993 183.657 830.763 200.739L803.44 213.167C797.83 200.832 789.102 190.172 778.118 182.238C767.133 174.303 754.271 169.368 740.798 167.918L744.01 138.074Z" fill="#003F9E"/>
<path d="M152.627 347.996C169.765 355.641 184.615 367.621 195.714 382.753C206.813 397.885 213.777 415.649 215.92 434.292L186.1 437.72C184.553 424.258 179.524 411.432 171.51 400.505C163.496 389.579 152.773 380.929 140.398 375.408L152.627 347.996Z" fill="#003F9E"/>
<path d="M540.531 275C531.148 291.252 517.692 304.779 501.489 314.247C485.286 323.715 466.896 328.798 448.131 328.994L447.817 298.979C461.366 298.837 474.645 295.167 486.345 288.331C498.044 281.494 507.761 271.727 514.536 259.992L540.531 275Z" fill="#003F9E"/>
<path d="M758.733 331.592C773.331 319.799 790.749 312.013 809.272 309.001C827.795 305.99 846.784 307.857 864.365 314.419L853.87 342.541C841.175 337.803 827.464 336.455 814.089 338.629C800.714 340.803 788.136 346.425 777.596 354.941L758.733 331.592Z" fill="#003F9E"/>
<path d="M262 126.294C267.449 144.252 268.125 163.32 263.96 181.618C259.796 199.916 250.936 216.814 238.253 230.645L216.129 210.358C225.288 200.371 231.686 188.17 234.692 174.957C237.699 161.745 237.211 147.976 233.277 135.01L262 126.294Z" fill="#003F9E"/>
<path d="M1249.53 283C1240.15 299.252 1226.69 312.779 1210.49 322.247C1194.29 331.715 1175.9 336.798 1157.13 336.994L1156.82 306.979C1170.37 306.837 1183.65 303.167 1195.34 296.331C1207.04 289.494 1216.76 279.727 1223.54 267.992L1249.53 283Z" fill="#003F9E"/>
<path d="M953.354 382.668C972.056 381.114 990.84 384.46 1007.85 392.376C1024.87 400.293 1039.53 412.506 1050.39 427.812L1025.9 445.178C1018.06 434.126 1007.48 425.308 995.193 419.592C982.907 413.876 969.344 411.46 955.84 412.582L953.354 382.668Z" fill="#003F9E"/>
<path d="M-17.0365 418.441C-4.1444 415.184 7.30062 407.737 15.5008 397.27C23.701 386.802 28.1917 373.907 28.2676 360.611C28.3435 347.314 24.0002 334.368 15.9201 323.808C7.83989 313.248 -3.51939 305.671 -16.3734 302.267L-31.7314 360.268L-17.0365 418.441Z" fill="#2163C7"/>
<path d="M127.027 593.276C136.454 574.109 151.353 558.167 169.84 547.467C188.327 536.767 209.572 531.789 230.888 533.164C252.204 534.538 272.634 542.202 289.594 555.188C306.555 568.173 319.283 585.896 326.171 606.115L297.758 615.794C292.785 601.194 283.594 588.397 271.347 579.021C259.101 569.644 244.349 564.11 228.957 563.118C213.565 562.126 198.225 565.72 184.876 573.446C171.527 581.172 160.769 592.683 153.962 606.523L127.027 593.276Z" fill="#003F9E"/>
<path d="M632.764 440.616C654.12 436.039 676.174 437.837 696.138 445.782C716.101 453.728 733.078 467.464 744.921 485.254C756.763 503.044 762.94 524.089 762.67 545.728C762.4 567.366 755.695 588.626 743.404 606.819L718.236 590.35C727.112 577.213 731.953 561.862 732.148 546.237C732.343 530.613 727.883 515.417 719.332 502.571C710.78 489.725 698.522 479.807 684.107 474.07C669.692 468.332 653.767 467.034 638.347 470.339L632.764 440.616Z" fill="#003F9E"/>
<path d="M8.6088 531.764C19.2365 535.717 30.767 536.578 41.864 534.247C52.961 531.916 63.1702 526.487 71.3086 518.591L29.5283 475.529L8.6088 531.764Z" fill="#2163C7"/>
<path d="M345.65 308.167C335.769 310.105 326.366 313.971 317.979 319.543C309.592 325.115 302.384 332.284 296.768 340.642C291.152 348.999 287.236 358.381 285.246 368.252C283.255 378.122 283.228 388.289 285.167 398.17L339.15 387.58C338.602 384.788 338.61 381.916 339.172 379.127C339.735 376.338 340.841 373.687 342.428 371.326C344.015 368.964 346.051 366.939 348.421 365.364C350.791 363.79 353.447 362.698 356.239 362.15L345.65 308.167Z" fill="#2163C7"/>
<path d="M662.65 289.167C642.694 293.081 625.111 304.763 613.768 321.642L650.067 346.035C654.94 338.784 662.495 333.765 671.068 332.083L662.65 289.167Z" fill="#2163C7"/>
<path d="M387.552 532.504C389.098 545.922 394.162 558.693 402.23 569.525C410.298 580.358 421.084 588.867 433.497 594.191C445.91 599.516 459.509 601.467 472.919 599.848C486.328 598.228 499.071 593.095 509.86 584.968L463.724 523.724L387.552 532.504Z" fill="#2163C7"/>
<path d="M474.172 504.985C489.333 504.621 504.045 499.769 516.448 491.044C528.852 482.318 538.389 470.11 543.855 455.964C549.32 441.818 550.468 426.369 547.153 411.57C543.838 396.771 536.209 383.288 525.232 372.825L503.687 395.43C510.195 401.632 514.716 409.624 516.681 418.396C518.646 427.168 517.966 436.325 514.726 444.71C511.487 453.095 505.833 460.331 498.481 465.504C491.129 470.676 482.408 473.552 473.422 473.767L474.172 504.985Z" fill="#2163C7"/>
<path d="M843.712 581.263C854.096 594.714 868.653 604.335 885.098 608.615C901.544 612.895 918.944 611.59 934.568 604.907C950.191 598.223 963.152 586.539 971.414 571.69C979.675 556.841 982.771 539.668 980.213 522.868L904.409 534.41L843.712 581.263Z" fill="#2163C7"/>
<path d="M971.712 276.263C977.865 284.233 985.528 290.914 994.262 295.924C1003 300.934 1012.63 304.174 1022.62 305.459L1029.97 248.364C1027.48 248.043 1025.08 247.236 1022.9 245.987C1020.72 244.739 1018.82 243.074 1017.28 241.087L971.712 276.263Z" fill="#2163C7"/>
<path d="M1138.64 543.051C1147 548.668 1156.38 552.583 1166.25 554.573C1176.12 556.564 1186.29 556.591 1196.17 554.653C1206.05 552.714 1215.45 548.849 1223.84 543.277C1232.23 537.705 1239.43 530.535 1245.05 522.178L1181.41 479.41L1138.64 543.051Z" fill="#2163C7"/>
<path d="M391.97 141.527C383.816 153.109 379.03 166.723 378.141 180.859C377.253 194.996 380.298 209.102 386.938 221.613L427.645 200.009C424.996 195.017 423.781 189.389 424.136 183.749C424.49 178.109 426.4 172.678 429.653 168.057L391.97 141.527Z" fill="#2163C7"/>
<path d="M63.6414 197.051C75.5133 205.029 89.3801 209.528 103.675 210.038C117.969 210.548 132.121 207.05 144.532 199.938L116.239 150.564C113.039 152.398 109.39 153.3 105.704 153.168C102.019 153.037 98.443 151.877 95.3819 149.82L63.6414 197.051Z" fill="#2163C7"/>
<path d="M1114.64 197.051C1124.4 203.611 1135.54 207.837 1147.2 209.403C1158.85 210.97 1170.71 209.834 1181.86 206.085C1193 202.335 1203.14 196.072 1211.48 187.78C1219.82 179.487 1226.14 169.388 1229.95 158.263L1202.41 148.827C1200.04 155.729 1196.12 161.994 1190.95 167.138C1185.78 172.282 1179.49 176.168 1172.58 178.494C1165.66 180.82 1158.3 181.524 1151.07 180.553C1143.84 179.581 1136.93 176.959 1130.88 172.89L1114.64 197.051Z" fill="#2163C7"/>
<path d="M768.283 90.542C781.071 92.0749 794.038 90.3621 805.989 85.5617C817.94 80.7613 828.489 73.0281 836.663 63.0756L814.168 44.5998C809.097 50.7739 802.553 55.5712 795.139 58.5491C787.725 61.527 779.681 62.5896 771.748 61.6387L768.283 90.542Z" fill="#2163C7"/>
<path d="M127.641 64.0513C138.704 71.4856 151.514 75.9079 164.807 76.8817C178.1 77.8556 191.418 75.3475 203.446 69.6048L190.904 43.335C183.442 46.8975 175.18 48.4534 166.934 47.8493C158.688 47.2451 150.741 44.5018 143.878 39.8899L127.641 64.0513Z" fill="#2163C7"/>
</g>
<defs>
<linearGradient id="paint0_linear_610_10723" x1="-1.01633e-07" y1="1164.5" x2="821.613" y2="1167.92" gradientUnits="userSpaceOnUse">
<stop stop-color="#5184D3"/>
<stop offset="1" stop-color="white"/>
</linearGradient>
<clipPath id="clip0_610_10723">
<rect y="572" width="572" height="1300" rx="4" transform="rotate(-90 0 572)" fill="white"/>
</clipPath>
</defs>
</svg>
