<svg width="300" height="300" viewBox="0 0 300 300" fill="none" xmlns="http://www.w3.org/2000/svg">
<g clip-path="url(#clip0_205_19073)">
<rect y="300" width="300" height="300" rx="4" transform="rotate(-90 0 300)" fill="#1C3A75"/>
<path d="M-4.72858 331.207C11.7468 327.045 26.3729 317.529 36.8523 304.152C47.3317 290.775 53.0707 274.296 53.1676 257.303C53.2646 240.311 47.7142 223.767 37.3881 210.272C27.0621 196.776 12.5455 187.093 -3.88126 182.743L-23.5079 256.866L-4.72858 331.207Z" fill="#2163C7"/>
<path d="M72.7855 28.5084C79.4317 42.2303 83.0972 57.2039 83.5408 72.4441C83.9844 87.6844 81.1962 102.846 75.3594 116.931C69.5227 131.016 60.7698 143.706 49.6766 154.166C38.5833 164.625 25.4012 172.617 10.9973 177.616L1.15563 149.259C11.5562 145.65 21.0747 139.879 29.0848 132.326C37.0949 124.774 43.4151 115.611 47.6296 105.44C51.8442 95.2697 53.8575 84.3221 53.5371 73.3175C53.2168 62.313 50.5701 51.501 45.7711 41.5928L72.7855 28.5084Z" fill="#003F9E"/>
<path d="M315.088 296.398C309.056 284.548 299.258 275.038 287.233 269.361C275.209 263.684 261.64 262.162 248.657 265.035C235.674 267.907 224.013 275.011 215.505 285.231C206.998 295.45 202.126 308.206 201.656 321.495L261.618 323.618L315.088 296.398Z" fill="#2163C7"/>
<path d="M181.036 53.3929C198.998 58.8261 215.235 68.846 228.146 82.4652C241.057 96.0843 250.196 112.833 254.663 131.059L225.509 138.204C222.284 125.043 215.685 112.95 206.362 103.116C197.039 93.2819 185.315 86.0468 172.345 82.1237L181.036 53.3929Z" fill="#003F9E"/>
<path d="M36.088 150V133.2H39.952V139.8H44.296V143.16H39.952V150H36.088ZM50.92 150.288C49.64 150.288 48.456 150.072 47.368 149.64C46.296 149.208 45.36 148.608 44.56 147.84C43.76 147.056 43.136 146.136 42.688 145.08C42.256 144.008 42.04 142.848 42.04 141.6C42.04 140.336 42.256 139.176 42.688 138.12C43.136 137.064 43.76 136.152 44.56 135.384C45.36 134.6 46.296 133.992 47.368 133.56C48.456 133.128 49.64 132.912 50.92 132.912C52.184 132.912 53.36 133.128 54.448 133.56C55.536 133.992 56.472 134.6 57.256 135.384C58.056 136.152 58.68 137.072 59.128 138.144C59.576 139.2 59.8 140.352 59.8 141.6C59.8 142.848 59.576 144.008 59.128 145.08C58.68 146.136 58.056 147.056 57.256 147.84C56.472 148.608 55.536 149.208 54.448 149.64C53.36 150.072 52.184 150.288 50.92 150.288ZM50.92 146.976C51.624 146.976 52.272 146.848 52.864 146.592C53.456 146.336 53.976 145.976 54.424 145.512C54.872 145.032 55.224 144.464 55.48 143.808C55.736 143.152 55.864 142.416 55.864 141.6C55.864 140.784 55.736 140.048 55.48 139.392C55.224 138.736 54.872 138.176 54.424 137.712C53.976 137.232 53.456 136.864 52.864 136.608C52.272 136.352 51.624 136.224 50.92 136.224C50.232 136.224 49.584 136.352 48.976 136.608C48.384 136.864 47.864 137.232 47.416 137.712C46.968 138.176 46.616 138.736 46.36 139.392C46.104 140.048 45.976 140.784 45.976 141.6C45.976 142.416 46.104 143.152 46.36 143.808C46.616 144.464 46.968 145.032 47.416 145.512C47.864 145.976 48.384 146.336 48.976 146.592C49.584 146.848 50.232 146.976 50.92 146.976ZM73.7502 150.192C72.6622 150.192 71.7102 149.952 70.8942 149.472C70.0782 148.992 69.4382 148.264 68.9742 147.288C68.5262 146.296 68.3022 145.048 68.3022 143.544C68.3022 142.024 68.5182 140.776 68.9502 139.8C69.3822 138.824 70.0062 138.096 70.8222 137.616C71.6382 137.136 72.6142 136.896 73.7502 136.896C74.9662 136.896 76.0542 137.176 77.0142 137.736C77.9902 138.28 78.7582 139.048 79.3182 140.04C79.8942 141.032 80.1822 142.2 80.1822 143.544C80.1822 144.904 79.8942 146.08 79.3182 147.072C78.7582 148.064 77.9902 148.832 77.0142 149.376C76.0542 149.92 74.9662 150.192 73.7502 150.192ZM66.1182 154.656V137.088H69.6942V139.728L69.6222 143.568L69.8622 147.384V154.656H66.1182ZM73.1022 147.12C73.7262 147.12 74.2782 146.976 74.7582 146.688C75.2542 146.4 75.6462 145.992 75.9342 145.464C76.2382 144.92 76.3902 144.28 76.3902 143.544C76.3902 142.792 76.2382 142.152 75.9342 141.624C75.6462 141.096 75.2542 140.688 74.7582 140.4C74.2782 140.112 73.7262 139.968 73.1022 139.968C72.4782 139.968 71.9182 140.112 71.4222 140.4C70.9262 140.688 70.5342 141.096 70.2462 141.624C69.9582 142.152 69.8142 142.792 69.8142 143.544C69.8142 144.28 69.9582 144.92 70.2462 145.464C70.5342 145.992 70.9262 146.4 71.4222 146.688C71.9182 146.976 72.4782 147.12 73.1022 147.12ZM86.4063 150V137.088H90.1263V144.768L96.4143 137.088H99.8463V150H96.1263V142.32L89.8623 150H86.4063ZM115.925 148.32V140.16H111.701L111.629 141.816C111.597 142.504 111.557 143.16 111.509 143.784C111.461 144.408 111.365 144.976 111.221 145.488C111.093 145.984 110.901 146.408 110.645 146.76C110.389 147.096 110.045 147.328 109.613 147.456L105.917 146.928C106.381 146.928 106.757 146.792 107.045 146.52C107.333 146.232 107.557 145.84 107.717 145.344C107.877 144.832 107.997 144.256 108.077 143.616C108.157 142.96 108.213 142.272 108.245 141.552L108.413 137.088H119.669V148.32H115.925ZM105.485 152.784V146.928H121.517V152.784H118.037V150H108.965V152.784H105.485ZM127.473 150V137.088H131.193V144.768L137.481 137.088H140.913V150H137.193V142.32L130.929 150H127.473ZM156.249 145.056C155.721 145.344 155.137 145.576 154.497 145.752C153.857 145.928 153.153 146.016 152.385 146.016C150.689 146.016 149.385 145.632 148.473 144.864C147.561 144.08 147.104 142.84 147.104 141.144V137.088H150.849V140.904C150.849 141.704 151.057 142.28 151.473 142.632C151.889 142.968 152.473 143.136 153.225 143.136C153.769 143.136 154.289 143.072 154.785 142.944C155.297 142.816 155.785 142.632 156.249 142.392V145.056ZM155.985 150V137.088H159.729V150H155.985ZM173.235 150.192C171.763 150.192 170.467 149.904 169.347 149.328C168.243 148.752 167.387 147.968 166.779 146.976C166.171 145.968 165.867 144.824 165.867 143.544C165.867 142.248 166.163 141.104 166.755 140.112C167.363 139.104 168.187 138.32 169.227 137.76C170.267 137.184 171.443 136.896 172.755 136.896C174.019 136.896 175.155 137.168 176.163 137.712C177.187 138.24 177.995 139.008 178.587 140.016C179.179 141.008 179.475 142.2 179.475 143.592C179.475 143.736 179.467 143.904 179.451 144.096C179.435 144.272 179.419 144.44 179.403 144.6H168.915V142.416H177.435L175.995 143.064C175.995 142.392 175.859 141.808 175.587 141.312C175.315 140.816 174.939 140.432 174.459 140.16C173.979 139.872 173.419 139.728 172.779 139.728C172.139 139.728 171.571 139.872 171.075 140.16C170.595 140.432 170.219 140.824 169.947 141.336C169.675 141.832 169.539 142.424 169.539 143.112V143.688C169.539 144.392 169.691 145.016 169.995 145.56C170.315 146.088 170.755 146.496 171.315 146.784C171.891 147.056 172.563 147.192 173.331 147.192C174.019 147.192 174.619 147.088 175.131 146.88C175.659 146.672 176.139 146.36 176.571 145.944L178.563 148.104C177.971 148.776 177.227 149.296 176.331 149.664C175.435 150.016 174.403 150.192 173.235 150.192ZM192.089 150.192C190.697 150.192 189.457 149.912 188.369 149.352C187.281 148.776 186.425 147.984 185.801 146.976C185.193 145.968 184.889 144.824 184.889 143.544C184.889 142.248 185.193 141.104 185.801 140.112C186.425 139.104 187.281 138.32 188.369 137.76C189.457 137.184 190.697 136.896 192.089 136.896C193.449 136.896 194.633 137.184 195.641 137.76C196.649 138.32 197.393 139.128 197.873 140.184L194.969 141.744C194.633 141.136 194.209 140.688 193.697 140.4C193.201 140.112 192.657 139.968 192.065 139.968C191.425 139.968 190.849 140.112 190.337 140.4C189.825 140.688 189.417 141.096 189.113 141.624C188.825 142.152 188.681 142.792 188.681 143.544C188.681 144.296 188.825 144.936 189.113 145.464C189.417 145.992 189.825 146.4 190.337 146.688C190.849 146.976 191.425 147.12 192.065 147.12C192.657 147.12 193.201 146.984 193.697 146.712C194.209 146.424 194.633 145.968 194.969 145.344L197.873 146.928C197.393 147.968 196.649 148.776 195.641 149.352C194.633 149.912 193.449 150.192 192.089 150.192ZM212.892 150L208.572 143.88L211.62 142.08L217.308 150H212.892ZM203.748 150V137.088H207.492V150H203.748ZM206.388 145.104V142.104H210.9V145.104H206.388ZM211.98 143.976L208.476 143.592L213.012 137.088H216.996L211.98 143.976ZM228.396 150.192C227.02 150.192 225.796 149.904 224.724 149.328C223.668 148.752 222.828 147.968 222.204 146.976C221.596 145.968 221.292 144.824 221.292 143.544C221.292 142.248 221.596 141.104 222.204 140.112C222.828 139.104 223.668 138.32 224.724 137.76C225.796 137.184 227.02 136.896 228.396 136.896C229.756 136.896 230.972 137.184 232.044 137.76C233.116 138.32 233.956 139.096 234.564 140.088C235.172 141.08 235.476 142.232 235.476 143.544C235.476 144.824 235.172 145.968 234.564 146.976C233.956 147.968 233.116 148.752 232.044 149.328C230.972 149.904 229.756 150.192 228.396 150.192ZM228.396 147.12C229.02 147.12 229.58 146.976 230.076 146.688C230.572 146.4 230.964 145.992 231.252 145.464C231.54 144.92 231.684 144.28 231.684 143.544C231.684 142.792 231.54 142.152 231.252 141.624C230.964 141.096 230.572 140.688 230.076 140.4C229.58 140.112 229.02 139.968 228.396 139.968C227.772 139.968 227.212 140.112 226.716 140.4C226.22 140.688 225.82 141.096 225.516 141.624C225.228 142.152 225.084 142.792 225.084 143.544C225.084 144.28 225.228 144.92 225.516 145.464C225.82 145.992 226.22 146.4 226.716 146.688C227.212 146.976 227.772 147.12 228.396 147.12ZM247.964 150.192C246.492 150.192 245.196 149.904 244.076 149.328C242.972 148.752 242.116 147.968 241.508 146.976C240.9 145.968 240.596 144.824 240.596 143.544C240.596 142.248 240.892 141.104 241.484 140.112C242.092 139.104 242.916 138.32 243.956 137.76C244.996 137.184 246.172 136.896 247.484 136.896C248.748 136.896 249.884 137.168 250.892 137.712C251.916 138.24 252.724 139.008 253.316 140.016C253.908 141.008 254.204 142.2 254.204 143.592C254.204 143.736 254.196 143.904 254.18 144.096C254.164 144.272 254.148 144.44 254.132 144.6H243.644V142.416H252.164L250.724 143.064C250.724 142.392 250.588 141.808 250.316 141.312C250.044 140.816 249.668 140.432 249.188 140.16C248.708 139.872 248.148 139.728 247.508 139.728C246.868 139.728 246.3 139.872 245.804 140.16C245.324 140.432 244.948 140.824 244.676 141.336C244.404 141.832 244.268 142.424 244.268 143.112V143.688C244.268 144.392 244.42 145.016 244.724 145.56C245.044 146.088 245.484 146.496 246.044 146.784C246.62 147.056 247.292 147.192 248.06 147.192C248.748 147.192 249.348 147.088 249.86 146.88C250.388 146.672 250.868 146.36 251.3 145.944L253.292 148.104C252.7 148.776 251.956 149.296 251.06 149.664C250.164 150.016 249.132 150.192 247.964 150.192ZM41.944 183.192C40.552 183.192 39.312 182.912 38.224 182.352C37.136 181.776 36.28 180.984 35.656 179.976C35.048 178.968 34.744 177.824 34.744 176.544C34.744 175.248 35.048 174.104 35.656 173.112C36.28 172.104 37.136 171.32 38.224 170.76C39.312 170.184 40.552 169.896 41.944 169.896C43.304 169.896 44.488 170.184 45.496 170.76C46.504 171.32 47.248 172.128 47.728 173.184L44.824 174.744C44.488 174.136 44.064 173.688 43.552 173.4C43.056 173.112 42.512 172.968 41.92 172.968C41.28 172.968 40.704 173.112 40.192 173.4C39.68 173.688 39.272 174.096 38.968 174.624C38.68 175.152 38.536 175.792 38.536 176.544C38.536 177.296 38.68 177.936 38.968 178.464C39.272 178.992 39.68 179.4 40.192 179.688C40.704 179.976 41.28 180.12 41.92 180.12C42.512 180.12 43.056 179.984 43.552 179.712C44.064 179.424 44.488 178.968 44.824 178.344L47.728 179.928C47.248 180.968 46.504 181.776 45.496 182.352C44.488 182.912 43.304 183.192 41.944 183.192ZM59.4871 183.192C58.1111 183.192 56.8871 182.904 55.8151 182.328C54.7591 181.752 53.9191 180.968 53.2951 179.976C52.6871 178.968 52.3831 177.824 52.3831 176.544C52.3831 175.248 52.6871 174.104 53.2951 173.112C53.9191 172.104 54.7591 171.32 55.8151 170.76C56.8871 170.184 58.1111 169.896 59.4871 169.896C60.8471 169.896 62.0631 170.184 63.1351 170.76C64.2071 171.32 65.0471 172.096 65.6551 173.088C66.2631 174.08 66.5671 175.232 66.5671 176.544C66.5671 177.824 66.2631 178.968 65.6551 179.976C65.0471 180.968 64.2071 181.752 63.1351 182.328C62.0631 182.904 60.8471 183.192 59.4871 183.192ZM59.4871 180.12C60.1111 180.12 60.6711 179.976 61.1671 179.688C61.6631 179.4 62.0551 178.992 62.3431 178.464C62.6311 177.92 62.7751 177.28 62.7751 176.544C62.7751 175.792 62.6311 175.152 62.3431 174.624C62.0551 174.096 61.6631 173.688 61.1671 173.4C60.6711 173.112 60.1111 172.968 59.4871 172.968C58.8631 172.968 58.3031 173.112 57.8071 173.4C57.3111 173.688 56.9111 174.096 56.6071 174.624C56.3191 175.152 56.1751 175.792 56.1751 176.544C56.1751 177.28 56.3191 177.92 56.6071 178.464C56.9111 178.992 57.3111 179.4 57.8071 179.688C58.3031 179.976 58.8631 180.12 59.4871 180.12ZM72.7422 183V170.088H85.5822V183H81.8382V172.32L82.6782 173.16H75.6222L76.4622 172.32V183H72.7422ZM100.38 183.192C99.2919 183.192 98.3399 182.952 97.5239 182.472C96.7079 181.992 96.0679 181.264 95.6039 180.288C95.1559 179.296 94.9319 178.048 94.9319 176.544C94.9319 175.024 95.1479 173.776 95.5799 172.8C96.0119 171.824 96.6359 171.096 97.4519 170.616C98.2679 170.136 99.2439 169.896 100.38 169.896C101.596 169.896 102.684 170.176 103.644 170.736C104.62 171.28 105.388 172.048 105.948 173.04C106.524 174.032 106.812 175.2 106.812 176.544C106.812 177.904 106.524 179.08 105.948 180.072C105.388 181.064 104.62 181.832 103.644 182.376C102.684 182.92 101.596 183.192 100.38 183.192ZM92.7479 187.656V170.088H96.3239V172.728L96.2519 176.568L96.4919 180.384V187.656H92.7479ZM99.7319 180.12C100.356 180.12 100.908 179.976 101.388 179.688C101.884 179.4 102.276 178.992 102.564 178.464C102.868 177.92 103.02 177.28 103.02 176.544C103.02 175.792 102.868 175.152 102.564 174.624C102.276 174.096 101.884 173.688 101.388 173.4C100.908 173.112 100.356 172.968 99.7319 172.968C99.1079 172.968 98.5479 173.112 98.0519 173.4C97.5559 173.688 97.1639 174.096 96.8759 174.624C96.5879 175.152 96.4439 175.792 96.4439 176.544C96.4439 177.28 96.5879 177.92 96.8759 178.464C97.1639 178.992 97.5559 179.4 98.0519 179.688C98.5479 179.976 99.1079 180.12 99.7319 180.12ZM119.084 183.192C117.708 183.192 116.484 182.904 115.412 182.328C114.356 181.752 113.516 180.968 112.892 179.976C112.284 178.968 111.98 177.824 111.98 176.544C111.98 175.248 112.284 174.104 112.892 173.112C113.516 172.104 114.356 171.32 115.412 170.76C116.484 170.184 117.708 169.896 119.084 169.896C120.444 169.896 121.66 170.184 122.732 170.76C123.804 171.32 124.644 172.096 125.252 173.088C125.86 174.08 126.164 175.232 126.164 176.544C126.164 177.824 125.86 178.968 125.252 179.976C124.644 180.968 123.804 181.752 122.732 182.328C121.66 182.904 120.444 183.192 119.084 183.192ZM119.084 180.12C119.708 180.12 120.268 179.976 120.764 179.688C121.26 179.4 121.652 178.992 121.94 178.464C122.228 177.92 122.372 177.28 122.372 176.544C122.372 175.792 122.228 175.152 121.94 174.624C121.652 174.096 121.26 173.688 120.764 173.4C120.268 173.112 119.708 172.968 119.084 172.968C118.46 172.968 117.9 173.112 117.404 173.4C116.908 173.688 116.508 174.096 116.204 174.624C115.916 175.152 115.772 175.792 115.772 176.544C115.772 177.28 115.916 177.92 116.204 178.464C116.508 178.992 116.908 179.4 117.404 179.688C117.9 179.976 118.46 180.12 119.084 180.12ZM132.339 183V170.088H138.939C140.555 170.088 141.819 170.384 142.731 170.976C143.643 171.552 144.099 172.368 144.099 173.424C144.099 174.48 143.667 175.312 142.803 175.92C141.955 176.512 140.827 176.808 139.419 176.808L139.803 175.944C141.371 175.944 142.539 176.232 143.307 176.808C144.091 177.384 144.483 178.224 144.483 179.328C144.483 180.464 144.051 181.36 143.187 182.016C142.323 182.672 141.003 183 139.227 183H132.339ZM135.771 180.456H138.915C139.603 180.456 140.115 180.344 140.451 180.12C140.803 179.88 140.979 179.52 140.979 179.04C140.979 178.544 140.819 178.184 140.499 177.96C140.179 177.72 139.675 177.6 138.987 177.6H135.771V180.456ZM135.771 175.392H138.603C139.259 175.392 139.747 175.272 140.067 175.032C140.403 174.792 140.571 174.448 140.571 174C140.571 173.536 140.403 173.192 140.067 172.968C139.747 172.744 139.259 172.632 138.603 172.632H135.771V175.392ZM156.917 183.192C155.541 183.192 154.317 182.904 153.245 182.328C152.189 181.752 151.349 180.968 150.725 179.976C150.117 178.968 149.813 177.824 149.813 176.544C149.813 175.248 150.117 174.104 150.725 173.112C151.349 172.104 152.189 171.32 153.245 170.76C154.317 170.184 155.541 169.896 156.917 169.896C158.277 169.896 159.493 170.184 160.565 170.76C161.637 171.32 162.477 172.096 163.085 173.088C163.693 174.08 163.997 175.232 163.997 176.544C163.997 177.824 163.693 178.968 163.085 179.976C162.477 180.968 161.637 181.752 160.565 182.328C159.493 182.904 158.277 183.192 156.917 183.192ZM156.917 180.12C157.541 180.12 158.101 179.976 158.597 179.688C159.093 179.4 159.485 178.992 159.773 178.464C160.061 177.92 160.205 177.28 160.205 176.544C160.205 175.792 160.061 175.152 159.773 174.624C159.485 174.096 159.093 173.688 158.597 173.4C158.101 173.112 157.541 172.968 156.917 172.968C156.293 172.968 155.733 173.112 155.237 173.4C154.741 173.688 154.341 174.096 154.037 174.624C153.749 175.152 153.605 175.792 153.605 176.544C153.605 177.28 153.749 177.92 154.037 178.464C154.341 178.992 154.741 179.4 155.237 179.688C155.733 179.976 156.293 180.12 156.917 180.12ZM185.301 183L181.869 176.88L184.893 175.08L189.741 183H185.301ZM179.661 178.104V175.104H184.149V178.104H179.661ZM185.277 176.976L181.749 176.592L185.469 170.088H189.429L185.277 176.976ZM172.533 183H168.117L172.941 175.08L175.965 176.88L172.533 183ZM180.765 183H177.069V170.088H180.765V183ZM178.173 178.104H173.709V175.104H178.173V178.104ZM172.557 176.976L168.405 170.088H172.365L176.061 176.592L172.557 176.976ZM201.201 183.192C199.729 183.192 198.433 182.904 197.313 182.328C196.209 181.752 195.353 180.968 194.745 179.976C194.137 178.968 193.833 177.824 193.833 176.544C193.833 175.248 194.129 174.104 194.721 173.112C195.329 172.104 196.153 171.32 197.193 170.76C198.233 170.184 199.409 169.896 200.721 169.896C201.985 169.896 203.121 170.168 204.129 170.712C205.153 171.24 205.961 172.008 206.553 173.016C207.145 174.008 207.441 175.2 207.441 176.592C207.441 176.736 207.433 176.904 207.417 177.096C207.401 177.272 207.385 177.44 207.369 177.6H196.881V175.416H205.401L203.961 176.064C203.961 175.392 203.825 174.808 203.553 174.312C203.281 173.816 202.905 173.432 202.425 173.16C201.945 172.872 201.385 172.728 200.745 172.728C200.105 172.728 199.537 172.872 199.041 173.16C198.561 173.432 198.185 173.824 197.913 174.336C197.641 174.832 197.505 175.424 197.505 176.112V176.688C197.505 177.392 197.657 178.016 197.961 178.56C198.281 179.088 198.721 179.496 199.281 179.784C199.857 180.056 200.529 180.192 201.297 180.192C201.985 180.192 202.585 180.088 203.097 179.88C203.625 179.672 204.105 179.36 204.537 178.944L206.529 181.104C205.937 181.776 205.193 182.296 204.297 182.664C203.401 183.016 202.369 183.192 201.201 183.192ZM213.911 183V170.088H217.631V175.128H223.247V170.088H226.991V183H223.247V178.176H217.631V183H213.911ZM234.175 183V170.088H237.895V177.768L244.183 170.088H247.615V183H243.895V175.32L237.631 183H234.175ZM261.126 183.192C259.654 183.192 258.358 182.904 257.238 182.328C256.134 181.752 255.278 180.968 254.67 179.976C254.062 178.968 253.758 177.824 253.758 176.544C253.758 175.248 254.054 174.104 254.646 173.112C255.254 172.104 256.078 171.32 257.118 170.76C258.158 170.184 259.334 169.896 260.646 169.896C261.91 169.896 263.046 170.168 264.054 170.712C265.078 171.24 265.886 172.008 266.478 173.016C267.07 174.008 267.366 175.2 267.366 176.592C267.366 176.736 267.358 176.904 267.342 177.096C267.326 177.272 267.31 177.44 267.294 177.6H256.806V175.416H265.326L263.886 176.064C263.886 175.392 263.75 174.808 263.478 174.312C263.206 173.816 262.83 173.432 262.35 173.16C261.87 172.872 261.31 172.728 260.67 172.728C260.03 172.728 259.462 172.872 258.966 173.16C258.486 173.432 258.11 173.824 257.838 174.336C257.566 174.832 257.43 175.424 257.43 176.112V176.688C257.43 177.392 257.582 178.016 257.886 178.56C258.206 179.088 258.646 179.496 259.206 179.784C259.782 180.056 260.454 180.192 261.222 180.192C261.91 180.192 262.51 180.088 263.022 179.88C263.55 179.672 264.03 179.36 264.462 178.944L266.454 181.104C265.862 181.776 265.118 182.296 264.222 182.664C263.326 183.016 262.294 183.192 261.126 183.192Z" fill="white"/>
</g>
<defs>
<clipPath id="clip0_205_19073">
<rect y="300" width="300" height="300" rx="4" transform="rotate(-90 0 300)" fill="white"/>
</clipPath>
</defs>
</svg>
