<svg width="300" height="300" viewBox="0 0 300 300" fill="none" xmlns="http://www.w3.org/2000/svg">
<g clip-path="url(#clip0_205_19049)">
<rect y="300" width="300" height="300" rx="4" transform="rotate(-90 0 300)" fill="#1C3A75"/>
<path d="M172.531 60C163.148 76.252 149.692 89.7786 133.489 99.2467C117.286 108.715 98.8961 113.798 80.131 113.994L79.8166 83.9794C93.3664 83.8375 106.645 80.1674 118.345 73.3307C130.044 66.4941 139.761 56.7269 146.536 44.9918L172.531 60Z" fill="#003F9E"/>
<path d="M-3.03652 137.904C9.85553 134.647 21.3006 127.2 29.5007 116.733C37.7009 106.265 42.1917 93.3702 42.2676 80.0734C42.3434 66.7766 38.0002 53.8313 29.92 43.2709C21.8398 32.7105 10.4806 25.1334 -2.37349 21.7298L-17.7315 79.731L-3.03652 137.904Z" fill="#2163C7"/>
<path d="M21.96 151L16.728 142.912L19.872 141.016L26.376 151H21.96ZM11.04 151V134.2H14.904V151H11.04ZM13.776 144.232V140.992H19.632V144.232H13.776ZM20.232 143.032L16.656 142.6L22.104 134.2H26.208L20.232 143.032ZM28.2141 151V138.088H34.8141C36.4301 138.088 37.6941 138.384 38.6061 138.976C39.5181 139.552 39.9741 140.368 39.9741 141.424C39.9741 142.48 39.5421 143.312 38.6781 143.92C37.8301 144.512 36.7021 144.808 35.2941 144.808L35.6781 143.944C37.2461 143.944 38.4141 144.232 39.1821 144.808C39.9661 145.384 40.3581 146.224 40.3581 147.328C40.3581 148.464 39.9261 149.36 39.0621 150.016C38.1981 150.672 36.8781 151 35.1021 151H28.2141ZM31.6461 148.456H34.7901C35.4781 148.456 35.9901 148.344 36.3261 148.12C36.6781 147.88 36.8541 147.52 36.8541 147.04C36.8541 146.544 36.6941 146.184 36.3741 145.96C36.0541 145.72 35.5501 145.6 34.8621 145.6H31.6461V148.456ZM31.6461 143.392H34.4781C35.1341 143.392 35.6221 143.272 35.9421 143.032C36.2781 142.792 36.4461 142.448 36.4461 142C36.4461 141.536 36.2781 141.192 35.9421 140.968C35.6221 140.744 35.1341 140.632 34.4781 140.632H31.6461V143.392ZM50.8718 151V148.48L50.6318 147.928V143.416C50.6318 142.616 50.3838 141.992 49.8878 141.544C49.4078 141.096 48.6638 140.872 47.6558 140.872C46.9678 140.872 46.2878 140.984 45.6158 141.208C44.9598 141.416 44.3998 141.704 43.9358 142.072L42.5918 139.456C43.2958 138.96 44.1438 138.576 45.1358 138.304C46.1278 138.032 47.1358 137.896 48.1598 137.896C50.1278 137.896 51.6558 138.36 52.7438 139.288C53.8318 140.216 54.3758 141.664 54.3758 143.632V151H50.8718ZM46.9358 151.192C45.9278 151.192 45.0638 151.024 44.3438 150.688C43.6238 150.336 43.0718 149.864 42.6878 149.272C42.3038 148.68 42.1118 148.016 42.1118 147.28C42.1118 146.512 42.2958 145.84 42.6638 145.264C43.0478 144.688 43.6478 144.24 44.4638 143.92C45.2798 143.584 46.3438 143.416 47.6558 143.416H51.0878V145.6H48.0638C47.1838 145.6 46.5758 145.744 46.2398 146.032C45.9198 146.32 45.7598 146.68 45.7598 147.112C45.7598 147.592 45.9438 147.976 46.3118 148.264C46.6958 148.536 47.2158 148.672 47.8718 148.672C48.4958 148.672 49.0558 148.528 49.5518 148.24C50.0478 147.936 50.4078 147.496 50.6318 146.92L51.2078 148.648C50.9358 149.48 50.4398 150.112 49.7198 150.544C48.9998 150.976 48.0718 151.192 46.9358 151.192ZM55.9961 150.976L56.1881 147.904C56.2841 147.92 56.3801 147.936 56.4761 147.952C56.5721 147.952 56.6601 147.952 56.7401 147.952C57.1881 147.952 57.5401 147.824 57.7961 147.568C58.0521 147.312 58.2441 146.968 58.3721 146.536C58.5001 146.088 58.5881 145.584 58.6361 145.024C58.7001 144.464 58.7481 143.88 58.7801 143.272L58.9721 138.088H70.0121V151H66.2681V140.248L67.1081 141.16H61.4441L62.2361 140.2L62.0681 143.44C62.0201 144.592 61.9241 145.648 61.7801 146.608C61.6521 147.568 61.4361 148.4 61.1321 149.104C60.8281 149.792 60.4201 150.328 59.9081 150.712C59.3961 151.08 58.7401 151.264 57.9401 151.264C57.6521 151.264 57.3481 151.24 57.0281 151.192C56.7081 151.144 56.3641 151.072 55.9961 150.976ZM73.6125 151V138.088H77.3325V145.768L83.6205 138.088H87.0525V151H83.3325V143.32L77.0685 151H73.6125ZM99.3396 151.288C99.3076 151.288 99.2196 151.288 99.0756 151.288C98.9316 151.288 98.7956 151.288 98.6676 151.288C98.5396 151.288 98.4516 151.288 98.4036 151.288C95.6036 151.24 93.4356 150.64 91.8996 149.488C90.3636 148.336 89.5956 146.672 89.5956 144.496C89.5956 142.352 90.3556 140.72 91.8756 139.6C93.4116 138.464 95.6116 137.888 98.4756 137.872C98.5076 137.872 98.5876 137.872 98.7156 137.872C98.8596 137.872 98.9956 137.872 99.1236 137.872C99.2516 137.872 99.3316 137.872 99.3636 137.872C102.26 137.872 104.5 138.432 106.084 139.552C107.684 140.672 108.484 142.32 108.484 144.496C108.484 146.704 107.684 148.392 106.084 149.56C104.5 150.712 102.252 151.288 99.3396 151.288ZM99.2196 148.408C100.548 148.408 101.628 148.272 102.46 148C103.292 147.712 103.9 147.28 104.284 146.704C104.684 146.112 104.884 145.376 104.884 144.496C104.884 143.648 104.692 142.952 104.308 142.408C103.924 141.848 103.308 141.432 102.46 141.16C101.628 140.888 100.548 140.752 99.2196 140.752C99.1716 140.752 99.0756 140.752 98.9316 140.752C98.7876 140.752 98.6916 140.752 98.6436 140.752C97.3636 140.752 96.3236 140.896 95.5236 141.184C94.7236 141.472 94.1396 141.888 93.7716 142.432C93.4036 142.976 93.2196 143.664 93.2196 144.496C93.2196 145.36 93.4036 146.08 93.7716 146.656C94.1396 147.232 94.7236 147.664 95.5236 147.952C96.3236 148.24 97.3636 148.392 98.6436 148.408C98.6916 148.408 98.7876 148.408 98.9316 148.408C99.0756 148.408 99.1716 148.408 99.2196 148.408ZM97.3236 155.656V133.192H100.756V155.656H97.3236ZM111.019 151V138.088H114.739V145.768L121.027 138.088H124.459V151H120.739V143.32L114.475 151H111.019ZM128.058 151V138.088H131.778V147.928H136.986V138.088H140.73V151H128.058ZM139.122 153.784V150.952L139.986 151H136.986V147.928H142.602V153.784H139.122ZM144.956 151V138.088H148.676V145.768L154.964 138.088H158.396V151H154.676V143.32L148.412 151H144.956ZM169.603 151.192C168.515 151.192 167.563 150.952 166.747 150.472C165.931 149.992 165.291 149.264 164.827 148.288C164.379 147.296 164.155 146.048 164.155 144.544C164.155 143.024 164.371 141.776 164.803 140.8C165.235 139.824 165.859 139.096 166.675 138.616C167.491 138.136 168.467 137.896 169.603 137.896C170.819 137.896 171.907 138.176 172.867 138.736C173.843 139.28 174.611 140.048 175.171 141.04C175.747 142.032 176.035 143.2 176.035 144.544C176.035 145.904 175.747 147.08 175.171 148.072C174.611 149.064 173.843 149.832 172.867 150.376C171.907 150.92 170.819 151.192 169.603 151.192ZM161.971 155.656V138.088H165.547V140.728L165.475 144.568L165.715 148.384V155.656H161.971ZM168.955 148.12C169.579 148.12 170.131 147.976 170.611 147.688C171.107 147.4 171.499 146.992 171.787 146.464C172.091 145.92 172.243 145.28 172.243 144.544C172.243 143.792 172.091 143.152 171.787 142.624C171.499 142.096 171.107 141.688 170.611 141.4C170.131 141.112 169.579 140.968 168.955 140.968C168.331 140.968 167.771 141.112 167.275 141.4C166.779 141.688 166.387 142.096 166.099 142.624C165.811 143.152 165.667 143.792 165.667 144.544C165.667 145.28 165.811 145.92 166.099 146.464C166.387 146.992 166.779 147.4 167.275 147.688C167.771 147.976 168.331 148.12 168.955 148.12ZM184.707 151.192C183.331 151.192 182.107 150.904 181.035 150.328C179.979 149.752 179.139 148.968 178.515 147.976C177.907 146.968 177.603 145.824 177.603 144.544C177.603 143.248 177.907 142.104 178.515 141.112C179.139 140.104 179.979 139.32 181.035 138.76C182.107 138.184 183.331 137.896 184.707 137.896C186.067 137.896 187.283 138.184 188.355 138.76C189.427 139.32 190.267 140.096 190.875 141.088C191.483 142.08 191.787 143.232 191.787 144.544C191.787 145.824 191.483 146.968 190.875 147.976C190.267 148.968 189.427 149.752 188.355 150.328C187.283 150.904 186.067 151.192 184.707 151.192ZM184.707 148.12C185.331 148.12 185.891 147.976 186.387 147.688C186.883 147.4 187.275 146.992 187.563 146.464C187.851 145.92 187.995 145.28 187.995 144.544C187.995 143.792 187.851 143.152 187.563 142.624C187.275 142.096 186.883 141.688 186.387 141.4C185.891 141.112 185.331 140.968 184.707 140.968C184.083 140.968 183.523 141.112 183.027 141.4C182.531 141.688 182.131 142.096 181.827 142.624C181.539 143.152 181.395 143.792 181.395 144.544C181.395 145.28 181.539 145.92 181.827 146.464C182.131 146.992 182.531 147.4 183.027 147.688C183.523 147.976 184.083 148.12 184.707 148.12ZM194.363 151V138.088H200.963C202.579 138.088 203.843 138.384 204.755 138.976C205.667 139.552 206.122 140.368 206.122 141.424C206.122 142.48 205.691 143.312 204.827 143.92C203.979 144.512 202.851 144.808 201.443 144.808L201.827 143.944C203.395 143.944 204.563 144.232 205.331 144.808C206.115 145.384 206.507 146.224 206.507 147.328C206.507 148.464 206.075 149.36 205.211 150.016C204.347 150.672 203.027 151 201.251 151H194.363ZM197.795 148.456H200.939C201.627 148.456 202.139 148.344 202.475 148.12C202.827 147.88 203.003 147.52 203.003 147.04C203.003 146.544 202.843 146.184 202.523 145.96C202.203 145.72 201.699 145.6 201.011 145.6H197.795V148.456ZM197.795 143.392H200.627C201.283 143.392 201.771 143.272 202.091 143.032C202.427 142.792 202.595 142.448 202.595 142C202.595 141.536 202.427 141.192 202.091 140.968C201.771 140.744 201.283 140.632 200.627 140.632H197.795V143.392ZM217.02 151V148.48L216.78 147.928V143.416C216.78 142.616 216.532 141.992 216.036 141.544C215.556 141.096 214.812 140.872 213.804 140.872C213.116 140.872 212.436 140.984 211.764 141.208C211.108 141.416 210.548 141.704 210.084 142.072L208.74 139.456C209.444 138.96 210.292 138.576 211.284 138.304C212.276 138.032 213.284 137.896 214.308 137.896C216.276 137.896 217.804 138.36 218.892 139.288C219.98 140.216 220.524 141.664 220.524 143.632V151H217.02ZM213.084 151.192C212.076 151.192 211.212 151.024 210.492 150.688C209.772 150.336 209.22 149.864 208.836 149.272C208.452 148.68 208.26 148.016 208.26 147.28C208.26 146.512 208.444 145.84 208.812 145.264C209.196 144.688 209.796 144.24 210.612 143.92C211.428 143.584 212.492 143.416 213.804 143.416H217.236V145.6H214.212C213.332 145.6 212.724 145.744 212.388 146.032C212.068 146.32 211.908 146.68 211.908 147.112C211.908 147.592 212.092 147.976 212.46 148.264C212.844 148.536 213.364 148.672 214.02 148.672C214.644 148.672 215.204 148.528 215.7 148.24C216.196 147.936 216.556 147.496 216.78 146.92L217.356 148.648C217.084 149.48 216.588 150.112 215.868 150.544C215.148 150.976 214.22 151.192 213.084 151.192ZM223.777 151V138.088H227.497V143.128H233.113V138.088H236.857V151H233.113V146.176H227.497V151H223.777ZM240.441 151V138.088H244.161V143.128H249.777V138.088H253.521V151H249.777V146.176H244.161V151H240.441ZM270.401 151V138.088H274.121V151H270.401ZM263.897 142.216C265.593 142.232 266.865 142.616 267.713 143.368C268.577 144.104 269.009 145.152 269.009 146.512C269.009 147.936 268.521 149.048 267.545 149.848C266.569 150.632 265.185 151.024 263.393 151.024L257.105 151V138.088H260.825V142.216H263.897ZM263.057 148.36C263.777 148.376 264.329 148.224 264.713 147.904C265.097 147.584 265.289 147.104 265.289 146.464C265.289 145.824 265.097 145.368 264.713 145.096C264.329 144.808 263.777 144.656 263.057 144.64L260.825 144.616V148.36H263.057ZM284.042 151.192C282.57 151.192 281.274 150.904 280.154 150.328C279.05 149.752 278.194 148.968 277.586 147.976C276.978 146.968 276.674 145.824 276.674 144.544C276.674 143.248 276.97 142.104 277.562 141.112C278.17 140.104 278.994 139.32 280.034 138.76C281.074 138.184 282.25 137.896 283.562 137.896C284.826 137.896 285.962 138.168 286.97 138.712C287.994 139.24 288.802 140.008 289.394 141.016C289.986 142.008 290.282 143.2 290.282 144.592C290.282 144.736 290.274 144.904 290.258 145.096C290.242 145.272 290.226 145.44 290.21 145.6H279.722V143.416H288.242L286.802 144.064C286.802 143.392 286.666 142.808 286.394 142.312C286.122 141.816 285.746 141.432 285.266 141.16C284.786 140.872 284.226 140.728 283.586 140.728C282.946 140.728 282.378 140.872 281.882 141.16C281.402 141.432 281.026 141.824 280.754 142.336C280.482 142.832 280.346 143.424 280.346 144.112V144.688C280.346 145.392 280.498 146.016 280.802 146.56C281.122 147.088 281.562 147.496 282.122 147.784C282.698 148.056 283.37 148.192 284.138 148.192C284.826 148.192 285.426 148.088 285.938 147.88C286.466 147.672 286.946 147.36 287.378 146.944L289.37 149.104C288.778 149.776 288.034 150.296 287.138 150.664C286.242 151.016 285.21 151.192 284.042 151.192ZM16.944 180.192C15.552 180.192 14.312 179.912 13.224 179.352C12.136 178.776 11.28 177.984 10.656 176.976C10.048 175.968 9.744 174.824 9.744 173.544C9.744 172.248 10.048 171.104 10.656 170.112C11.28 169.104 12.136 168.32 13.224 167.76C14.312 167.184 15.552 166.896 16.944 166.896C18.304 166.896 19.488 167.184 20.496 167.76C21.504 168.32 22.248 169.128 22.728 170.184L19.824 171.744C19.488 171.136 19.064 170.688 18.552 170.4C18.056 170.112 17.512 169.968 16.92 169.968C16.28 169.968 15.704 170.112 15.192 170.4C14.68 170.688 14.272 171.096 13.968 171.624C13.68 172.152 13.536 172.792 13.536 173.544C13.536 174.296 13.68 174.936 13.968 175.464C14.272 175.992 14.68 176.4 15.192 176.688C15.704 176.976 16.28 177.12 16.92 177.12C17.512 177.12 18.056 176.984 18.552 176.712C19.064 176.424 19.488 175.968 19.824 175.344L22.728 176.928C22.248 177.968 21.504 178.776 20.496 179.352C19.488 179.912 18.304 180.192 16.944 180.192ZM25.0031 180V167.088H37.8431V180H34.0991V169.32L34.9391 170.16H27.8831L28.7231 169.32V180H25.0031ZM47.7448 180.192C46.2728 180.192 44.9768 179.904 43.8568 179.328C42.7528 178.752 41.8968 177.968 41.2888 176.976C40.6808 175.968 40.3768 174.824 40.3768 173.544C40.3768 172.248 40.6728 171.104 41.2648 170.112C41.8728 169.104 42.6968 168.32 43.7368 167.76C44.7768 167.184 45.9528 166.896 47.2648 166.896C48.5288 166.896 49.6648 167.168 50.6728 167.712C51.6968 168.24 52.5048 169.008 53.0968 170.016C53.6888 171.008 53.9848 172.2 53.9848 173.592C53.9848 173.736 53.9768 173.904 53.9608 174.096C53.9448 174.272 53.9288 174.44 53.9128 174.6H43.4248V172.416H51.9448L50.5048 173.064C50.5048 172.392 50.3688 171.808 50.0968 171.312C49.8248 170.816 49.4488 170.432 48.9688 170.16C48.4888 169.872 47.9288 169.728 47.2888 169.728C46.6488 169.728 46.0808 169.872 45.5848 170.16C45.1048 170.432 44.7288 170.824 44.4568 171.336C44.1848 171.832 44.0488 172.424 44.0488 173.112V173.688C44.0488 174.392 44.2008 175.016 44.5048 175.56C44.8248 176.088 45.2648 176.496 45.8248 176.784C46.4008 177.056 47.0728 177.192 47.8408 177.192C48.5288 177.192 49.1288 177.088 49.6408 176.88C50.1688 176.672 50.6488 176.36 51.0808 175.944L53.0728 178.104C52.4808 178.776 51.7368 179.296 50.8408 179.664C49.9448 180.016 48.9128 180.192 47.7448 180.192ZM56.8547 180V167.088H60.5747V176.928H65.7827V167.088H69.5267V180H56.8547ZM67.9187 182.784V179.952L68.7827 180H65.7827V176.928H71.3987V182.784H67.9187ZM73.7531 180V167.088H77.4731V174.768L83.7611 167.088H87.1931V180H83.4731V172.32L77.2091 180H73.7531ZM98.5202 180V177.48L98.2802 176.928V172.416C98.2802 171.616 98.0322 170.992 97.5362 170.544C97.0562 170.096 96.3122 169.872 95.3042 169.872C94.6162 169.872 93.9362 169.984 93.2642 170.208C92.6082 170.416 92.0482 170.704 91.5842 171.072L90.2402 168.456C90.9442 167.96 91.7922 167.576 92.7842 167.304C93.7762 167.032 94.7842 166.896 95.8082 166.896C97.7762 166.896 99.3042 167.36 100.392 168.288C101.48 169.216 102.024 170.664 102.024 172.632V180H98.5202ZM94.5842 180.192C93.5762 180.192 92.7122 180.024 91.9922 179.688C91.2722 179.336 90.7202 178.864 90.3362 178.272C89.9522 177.68 89.7602 177.016 89.7602 176.28C89.7602 175.512 89.9442 174.84 90.3122 174.264C90.6962 173.688 91.2962 173.24 92.1122 172.92C92.9282 172.584 93.9922 172.416 95.3042 172.416H98.7362V174.6H95.7122C94.8322 174.6 94.2242 174.744 93.8882 175.032C93.5682 175.32 93.4082 175.68 93.4082 176.112C93.4082 176.592 93.5922 176.976 93.9602 177.264C94.3442 177.536 94.8642 177.672 95.5202 177.672C96.1442 177.672 96.7042 177.528 97.2002 177.24C97.6962 176.936 98.0562 176.496 98.2802 175.92L98.8562 177.648C98.5842 178.48 98.0882 179.112 97.3682 179.544C96.6482 179.976 95.7202 180.192 94.5842 180.192ZM103.645 179.976L103.837 176.904C103.933 176.92 104.029 176.936 104.125 176.952C104.221 176.952 104.309 176.952 104.389 176.952C104.837 176.952 105.189 176.824 105.445 176.568C105.701 176.312 105.893 175.968 106.021 175.536C106.149 175.088 106.237 174.584 106.285 174.024C106.349 173.464 106.397 172.88 106.429 172.272L106.621 167.088H117.661V180H113.917V169.248L114.757 170.16H109.093L109.885 169.2L109.717 172.44C109.669 173.592 109.573 174.648 109.429 175.608C109.301 176.568 109.085 177.4 108.781 178.104C108.477 178.792 108.069 179.328 107.557 179.712C107.045 180.08 106.389 180.264 105.589 180.264C105.301 180.264 104.997 180.24 104.677 180.192C104.357 180.144 104.013 180.072 103.645 179.976ZM121.261 180V167.088H124.981V174.768L131.269 167.088H134.701V180H130.981V172.32L124.717 180H121.261ZM144.444 180.192C143.052 180.192 141.812 179.912 140.724 179.352C139.636 178.776 138.78 177.984 138.156 176.976C137.548 175.968 137.244 174.824 137.244 173.544C137.244 172.248 137.548 171.104 138.156 170.112C138.78 169.104 139.636 168.32 140.724 167.76C141.812 167.184 143.052 166.896 144.444 166.896C145.804 166.896 146.988 167.184 147.996 167.76C149.004 168.32 149.748 169.128 150.228 170.184L147.324 171.744C146.988 171.136 146.564 170.688 146.052 170.4C145.556 170.112 145.012 169.968 144.42 169.968C143.78 169.968 143.204 170.112 142.692 170.4C142.18 170.688 141.772 171.096 141.468 171.624C141.18 172.152 141.036 172.792 141.036 173.544C141.036 174.296 141.18 174.936 141.468 175.464C141.772 175.992 142.18 176.4 142.692 176.688C143.204 176.976 143.78 177.12 144.42 177.12C145.012 177.12 145.556 176.984 146.052 176.712C146.564 176.424 146.988 175.968 147.324 175.344L150.228 176.928C149.748 177.968 149.004 178.776 147.996 179.352C146.988 179.912 145.804 180.192 144.444 180.192ZM155.24 180V169.296L156.08 170.16H150.872V167.088H163.328V170.16H158.12L158.96 169.296V180H155.24ZM178.619 180V167.088H182.339V180H178.619ZM172.115 171.216C173.811 171.232 175.083 171.616 175.931 172.368C176.795 173.104 177.227 174.152 177.227 175.512C177.227 176.936 176.739 178.048 175.763 178.848C174.787 179.632 173.403 180.024 171.611 180.024L165.323 180V167.088H169.043V171.216H172.115ZM171.275 177.36C171.995 177.376 172.547 177.224 172.931 176.904C173.315 176.584 173.507 176.104 173.507 175.464C173.507 174.824 173.315 174.368 172.931 174.096C172.547 173.808 171.995 173.656 171.275 173.64L169.043 173.616V177.36H171.275Z" fill="white"/>
<path d="M101.996 294.246C111.423 275.078 126.322 259.137 144.809 248.437C163.297 237.737 184.542 232.759 205.858 234.133C227.174 235.508 247.604 243.172 264.564 256.157C281.524 269.142 294.253 286.865 301.141 307.085L272.728 316.764C267.754 302.164 258.563 289.367 246.317 279.99C234.07 270.614 219.318 265.08 203.927 264.088C188.535 263.095 173.194 266.689 159.845 274.416C146.496 282.142 135.738 293.653 128.931 307.493L101.996 294.246Z" fill="#003F9E"/>
<path d="M8.6088 259.764C19.2365 263.717 30.767 264.578 41.864 262.247C52.961 259.916 63.1702 254.487 71.3086 246.591L29.5283 203.529L8.6088 259.764Z" fill="#2163C7"/>
<path d="M305.65 -16.833C288.975 -13.562 273.859 -4.84446 262.676 7.9503C251.493 20.7451 244.877 36.8921 243.868 53.855C242.859 70.8179 247.513 87.6355 257.099 101.666C266.685 115.697 280.661 126.146 296.83 131.371L320.409 58.4098L305.65 -16.833Z" fill="#2163C7"/>
</g>
<defs>
<clipPath id="clip0_205_19049">
<rect y="300" width="300" height="300" rx="4" transform="rotate(-90 0 300)" fill="white"/>
</clipPath>
</defs>
</svg>
