<svg width="300" height="300" viewBox="0 0 300 300" fill="none" xmlns="http://www.w3.org/2000/svg">
<g clip-path="url(#clip0_205_19057)">
<rect y="300" width="300" height="300" rx="4" transform="rotate(-90 0 300)" fill="#1C3A75"/>
<path d="M-13.0365 267.904C-0.144465 264.647 11.3006 257.2 19.5007 246.733C27.7009 236.265 32.1917 223.37 32.2676 210.073C32.3434 196.777 28.0002 183.831 19.92 173.271C11.8398 162.711 0.480553 155.133 -12.3735 151.73L-27.7315 209.731L-13.0365 267.904Z" fill="#2163C7"/>
<path d="M139.828 106.214C131.158 96.1325 119.384 89.2163 106.357 86.5521C93.3295 83.888 79.7862 85.6268 67.8543 91.4955C55.9225 97.3642 46.2781 107.03 40.4362 118.975C34.5943 130.92 32.8859 144.467 35.5793 157.489L94.3355 145.336L139.828 106.214Z" fill="#2163C7"/>
<path d="M158.531 -40C147.851 -21.5014 131.925 -6.5852 112.767 2.86226C93.6096 12.3097 72.0808 15.8641 50.9032 13.076C29.7255 10.288 9.85023 1.28257 -6.20935 -12.8013C-22.2689 -26.8852 -33.7915 -45.415 -39.32 -66.0475L-10.3264 -73.8164C-6.33447 -58.9182 1.98565 -45.5383 13.5818 -35.3688C25.178 -25.1992 39.5293 -18.6967 54.8211 -16.6835C70.1128 -14.6703 85.6582 -17.2369 99.4913 -24.0586C113.324 -30.8803 124.824 -41.6508 132.536 -55.0082L158.531 -40Z" fill="#003F9E"/>
<path d="M317.531 234C306.851 252.499 290.925 267.415 271.767 276.862C252.61 286.31 231.081 289.864 209.903 287.076C188.726 284.288 168.85 275.283 152.791 261.199C136.731 247.115 125.208 228.585 119.68 207.952L148.674 200.184C152.666 215.082 160.986 228.462 172.582 238.631C184.178 248.801 198.529 255.303 213.821 257.316C229.113 259.33 244.658 256.763 258.491 249.941C272.324 243.12 283.824 232.349 291.536 218.992L317.531 234Z" fill="#003F9E"/>
<path d="M167.614 12.6292C182.713 10.5155 198.089 11.6228 212.73 15.8782C227.371 20.1336 240.945 27.4408 252.559 37.319C264.172 47.1971 273.563 59.4224 280.113 73.1906C286.663 86.9587 290.223 101.958 290.56 117.201L260.551 117.864C260.308 106.857 257.737 96.0269 253.008 86.0853C248.278 76.1437 241.497 67.3162 233.111 60.1835C224.725 53.0507 214.924 47.7744 204.352 44.7017C193.781 41.629 182.678 40.8294 171.775 42.3557L167.614 12.6292Z" fill="#003F9E"/>
<path d="M70.256 143.992V141.016H78.56V143.992H70.256ZM72.464 133.912C73.728 133.912 74.888 134.128 75.944 134.56C77 134.976 77.92 135.576 78.704 136.36C79.488 137.144 80.096 138.064 80.528 139.12C80.96 140.176 81.176 141.336 81.176 142.6C81.176 143.864 80.96 145.024 80.528 146.08C80.096 147.136 79.488 148.056 78.704 148.84C77.92 149.624 77 150.232 75.944 150.664C74.888 151.08 73.728 151.288 72.464 151.288C70.976 151.288 69.632 151.032 68.432 150.52C67.248 150.008 66.256 149.264 65.456 148.288L67.928 145.984C68.52 146.656 69.176 147.16 69.896 147.496C70.616 147.816 71.408 147.976 72.272 147.976C72.992 147.976 73.656 147.848 74.264 147.592C74.888 147.32 75.416 146.952 75.848 146.488C76.296 146.008 76.632 145.44 76.856 144.784C77.096 144.128 77.216 143.4 77.216 142.6C77.216 141.8 77.096 141.072 76.856 140.416C76.632 139.76 76.296 139.2 75.848 138.736C75.416 138.256 74.888 137.888 74.264 137.632C73.656 137.36 72.992 137.224 72.272 137.224C71.408 137.224 70.616 137.392 69.896 137.728C69.176 138.048 68.52 138.544 67.928 139.216L65.456 136.912C66.256 135.936 67.248 135.192 68.432 134.68C69.632 134.168 70.976 133.912 72.464 133.912ZM92.6208 151.288C92.5888 151.288 92.5008 151.288 92.3568 151.288C92.2128 151.288 92.0768 151.288 91.9488 151.288C91.8208 151.288 91.7328 151.288 91.6848 151.288C88.8848 151.24 86.7168 150.64 85.1808 149.488C83.6448 148.336 82.8768 146.672 82.8768 144.496C82.8768 142.352 83.6368 140.72 85.1568 139.6C86.6928 138.464 88.8928 137.888 91.7568 137.872C91.7888 137.872 91.8688 137.872 91.9968 137.872C92.1408 137.872 92.2768 137.872 92.4048 137.872C92.5328 137.872 92.6128 137.872 92.6448 137.872C95.5408 137.872 97.7808 138.432 99.3648 139.552C100.965 140.672 101.765 142.32 101.765 144.496C101.765 146.704 100.965 148.392 99.3648 149.56C97.7808 150.712 95.5328 151.288 92.6208 151.288ZM92.5008 148.408C93.8288 148.408 94.9088 148.272 95.7408 148C96.5728 147.712 97.1808 147.28 97.5648 146.704C97.9648 146.112 98.1648 145.376 98.1648 144.496C98.1648 143.648 97.9728 142.952 97.5888 142.408C97.2048 141.848 96.5888 141.432 95.7408 141.16C94.9088 140.888 93.8288 140.752 92.5008 140.752C92.4528 140.752 92.3568 140.752 92.2128 140.752C92.0688 140.752 91.9728 140.752 91.9248 140.752C90.6448 140.752 89.6048 140.896 88.8048 141.184C88.0048 141.472 87.4208 141.888 87.0528 142.432C86.6848 142.976 86.5008 143.664 86.5008 144.496C86.5008 145.36 86.6848 146.08 87.0528 146.656C87.4208 147.232 88.0048 147.664 88.8048 147.952C89.6048 148.24 90.6448 148.392 91.9248 148.408C91.9728 148.408 92.0688 148.408 92.2128 148.408C92.3568 148.408 92.4528 148.408 92.5008 148.408ZM90.6048 155.656V133.192H94.0368V155.656H90.6048ZM112.988 151.288C112.956 151.288 112.868 151.288 112.724 151.288C112.58 151.288 112.444 151.288 112.316 151.288C112.188 151.288 112.1 151.288 112.052 151.288C109.252 151.24 107.084 150.64 105.548 149.488C104.012 148.336 103.244 146.672 103.244 144.496C103.244 142.352 104.004 140.72 105.524 139.6C107.06 138.464 109.26 137.888 112.124 137.872C112.156 137.872 112.236 137.872 112.364 137.872C112.508 137.872 112.644 137.872 112.772 137.872C112.9 137.872 112.98 137.872 113.012 137.872C115.908 137.872 118.148 138.432 119.732 139.552C121.332 140.672 122.132 142.32 122.132 144.496C122.132 146.704 121.332 148.392 119.732 149.56C118.148 150.712 115.9 151.288 112.988 151.288ZM112.868 148.408C114.196 148.408 115.276 148.272 116.108 148C116.94 147.712 117.548 147.28 117.932 146.704C118.332 146.112 118.532 145.376 118.532 144.496C118.532 143.648 118.34 142.952 117.956 142.408C117.572 141.848 116.956 141.432 116.108 141.16C115.276 140.888 114.196 140.752 112.868 140.752C112.82 140.752 112.724 140.752 112.58 140.752C112.436 140.752 112.34 140.752 112.292 140.752C111.012 140.752 109.972 140.896 109.172 141.184C108.372 141.472 107.788 141.888 107.42 142.432C107.052 142.976 106.868 143.664 106.868 144.496C106.868 145.36 107.052 146.08 107.42 146.656C107.788 147.232 108.372 147.664 109.172 147.952C109.972 148.24 111.012 148.392 112.292 148.408C112.34 148.408 112.436 148.408 112.58 148.408C112.724 148.408 112.82 148.408 112.868 148.408ZM110.972 155.656V133.192H114.404V155.656H110.972ZM130.979 151.192C129.507 151.192 128.211 150.904 127.091 150.328C125.987 149.752 125.131 148.968 124.523 147.976C123.915 146.968 123.611 145.824 123.611 144.544C123.611 143.248 123.907 142.104 124.499 141.112C125.107 140.104 125.931 139.32 126.971 138.76C128.011 138.184 129.187 137.896 130.499 137.896C131.763 137.896 132.899 138.168 133.907 138.712C134.931 139.24 135.739 140.008 136.331 141.016C136.923 142.008 137.219 143.2 137.219 144.592C137.219 144.736 137.211 144.904 137.195 145.096C137.179 145.272 137.163 145.44 137.147 145.6H126.659V143.416H135.179L133.739 144.064C133.739 143.392 133.603 142.808 133.331 142.312C133.059 141.816 132.683 141.432 132.203 141.16C131.723 140.872 131.163 140.728 130.523 140.728C129.883 140.728 129.315 140.872 128.819 141.16C128.339 141.432 127.963 141.824 127.691 142.336C127.419 142.832 127.283 143.424 127.283 144.112V144.688C127.283 145.392 127.435 146.016 127.739 146.56C128.059 147.088 128.499 147.496 129.059 147.784C129.635 148.056 130.307 148.192 131.075 148.192C131.763 148.192 132.363 148.088 132.875 147.88C133.403 147.672 133.883 147.36 134.315 146.944L136.307 149.104C135.715 149.776 134.971 150.296 134.075 150.664C133.179 151.016 132.147 151.192 130.979 151.192ZM149.233 151L144.913 144.88L147.961 143.08L153.649 151H149.233ZM140.089 151V138.088H143.833V151H140.089ZM142.729 146.104V143.104H147.241V146.104H142.729ZM148.321 144.976L144.817 144.592L149.353 138.088H153.337L148.321 144.976ZM158.13 151V140.296L158.97 141.16H153.762V138.088H166.218V141.16H161.01L161.85 140.296V151H158.13ZM168.214 151V138.088H171.934V145.768L178.222 138.088H181.654V151H177.934V143.32L171.67 151H168.214ZM185.253 151V138.088H191.853C193.469 138.088 194.733 138.384 195.645 138.976C196.557 139.552 197.013 140.368 197.013 141.424C197.013 142.48 196.581 143.312 195.717 143.92C194.869 144.512 193.741 144.808 192.333 144.808L192.717 143.944C194.285 143.944 195.453 144.232 196.221 144.808C197.005 145.384 197.397 146.224 197.397 147.328C197.397 148.464 196.965 149.36 196.101 150.016C195.237 150.672 193.917 151 192.141 151H185.253ZM188.685 148.456H191.829C192.517 148.456 193.029 148.344 193.365 148.12C193.717 147.88 193.893 147.52 193.893 147.04C193.893 146.544 193.733 146.184 193.413 145.96C193.093 145.72 192.589 145.6 191.901 145.6H188.685V148.456ZM188.685 143.392H191.517C192.173 143.392 192.661 143.272 192.981 143.032C193.317 142.792 193.485 142.448 193.485 142C193.485 141.536 193.317 141.192 192.981 140.968C192.661 140.744 192.173 140.632 191.517 140.632H188.685V143.392ZM200.183 151V138.088H203.903V143.128H209.519V138.088H213.263V151H209.519V146.176H203.903V151H200.183ZM230.143 151V138.088H233.863V151H230.143ZM223.639 142.216C225.335 142.232 226.607 142.616 227.455 143.368C228.319 144.104 228.751 145.152 228.751 146.512C228.751 147.936 228.263 149.048 227.287 149.848C226.311 150.632 224.927 151.024 223.135 151.024L216.847 151V138.088H220.567V142.216H223.639ZM222.799 148.36C223.519 148.376 224.071 148.224 224.455 147.904C224.839 147.584 225.031 147.104 225.031 146.464C225.031 145.824 224.839 145.368 224.455 145.096C224.071 144.808 223.519 144.656 222.799 144.64L220.567 144.616V148.36H222.799ZM243.784 151.192C242.312 151.192 241.016 150.904 239.896 150.328C238.792 149.752 237.936 148.968 237.328 147.976C236.72 146.968 236.416 145.824 236.416 144.544C236.416 143.248 236.712 142.104 237.304 141.112C237.912 140.104 238.736 139.32 239.776 138.76C240.816 138.184 241.992 137.896 243.304 137.896C244.568 137.896 245.704 138.168 246.712 138.712C247.736 139.24 248.544 140.008 249.136 141.016C249.728 142.008 250.024 143.2 250.024 144.592C250.024 144.736 250.016 144.904 250 145.096C249.984 145.272 249.968 145.44 249.952 145.6H239.464V143.416H247.984L246.544 144.064C246.544 143.392 246.408 142.808 246.136 142.312C245.864 141.816 245.488 141.432 245.008 141.16C244.528 140.872 243.968 140.728 243.328 140.728C242.688 140.728 242.12 140.872 241.624 141.16C241.144 141.432 240.768 141.824 240.496 142.336C240.224 142.832 240.088 143.424 240.088 144.112V144.688C240.088 145.392 240.24 146.016 240.544 146.56C240.864 147.088 241.304 147.496 241.864 147.784C242.44 148.056 243.112 148.192 243.88 148.192C244.568 148.192 245.168 148.088 245.68 147.88C246.208 147.672 246.688 147.36 247.12 146.944L249.112 149.104C248.52 149.776 247.776 150.296 246.88 150.664C245.984 151.016 244.952 151.192 243.784 151.192ZM66.8 180V167.088H70.712L75.584 175.92H74.024L79.232 167.088H82.736L82.784 180H79.4V170.928L79.976 171.312L75.536 178.752H73.952L69.488 171.048L70.184 170.88V180H66.8ZM92.6823 180.192C91.2103 180.192 89.9143 179.904 88.7943 179.328C87.6903 178.752 86.8343 177.968 86.2263 176.976C85.6183 175.968 85.3143 174.824 85.3143 173.544C85.3143 172.248 85.6103 171.104 86.2023 170.112C86.8103 169.104 87.6343 168.32 88.6743 167.76C89.7143 167.184 90.8903 166.896 92.2023 166.896C93.4663 166.896 94.6023 167.168 95.6103 167.712C96.6343 168.24 97.4423 169.008 98.0343 170.016C98.6263 171.008 98.9223 172.2 98.9223 173.592C98.9223 173.736 98.9143 173.904 98.8983 174.096C98.8823 174.272 98.8663 174.44 98.8503 174.6H88.3623V172.416H96.8823L95.4423 173.064C95.4423 172.392 95.3063 171.808 95.0343 171.312C94.7623 170.816 94.3863 170.432 93.9063 170.16C93.4263 169.872 92.8663 169.728 92.2263 169.728C91.5863 169.728 91.0183 169.872 90.5223 170.16C90.0423 170.432 89.6663 170.824 89.3943 171.336C89.1223 171.832 88.9863 172.424 88.9863 173.112V173.688C88.9863 174.392 89.1383 175.016 89.4423 175.56C89.7623 176.088 90.2023 176.496 90.7623 176.784C91.3383 177.056 92.0103 177.192 92.7783 177.192C93.4663 177.192 94.0663 177.088 94.5783 176.88C95.1063 176.672 95.5863 176.36 96.0183 175.944L98.0103 178.104C97.4183 178.776 96.6743 179.296 95.7783 179.664C94.8823 180.016 93.8503 180.192 92.6823 180.192ZM104.107 180V169.296L104.947 170.16H99.7389V167.088H112.195V170.16H106.987L107.827 169.296V180H104.107ZM119.7 180.192C118.324 180.192 117.1 179.904 116.028 179.328C114.972 178.752 114.132 177.968 113.508 176.976C112.9 175.968 112.596 174.824 112.596 173.544C112.596 172.248 112.9 171.104 113.508 170.112C114.132 169.104 114.972 168.32 116.028 167.76C117.1 167.184 118.324 166.896 119.7 166.896C121.06 166.896 122.276 167.184 123.348 167.76C124.42 168.32 125.26 169.096 125.868 170.088C126.476 171.08 126.78 172.232 126.78 173.544C126.78 174.824 126.476 175.968 125.868 176.976C125.26 177.968 124.42 178.752 123.348 179.328C122.276 179.904 121.06 180.192 119.7 180.192ZM119.7 177.12C120.324 177.12 120.884 176.976 121.38 176.688C121.876 176.4 122.268 175.992 122.556 175.464C122.844 174.92 122.988 174.28 122.988 173.544C122.988 172.792 122.844 172.152 122.556 171.624C122.268 171.096 121.876 170.688 121.38 170.4C120.884 170.112 120.324 169.968 119.7 169.968C119.076 169.968 118.516 170.112 118.02 170.4C117.524 170.688 117.124 171.096 116.82 171.624C116.532 172.152 116.388 172.792 116.388 173.544C116.388 174.28 116.532 174.92 116.82 175.464C117.124 175.992 117.524 176.4 118.02 176.688C118.516 176.976 119.076 177.12 119.7 177.12ZM138.047 178.32V170.16H133.823L133.751 171.816C133.719 172.504 133.679 173.16 133.631 173.784C133.583 174.408 133.487 174.976 133.343 175.488C133.215 175.984 133.023 176.408 132.767 176.76C132.511 177.096 132.167 177.328 131.735 177.456L128.039 176.928C128.503 176.928 128.879 176.792 129.167 176.52C129.455 176.232 129.679 175.84 129.839 175.344C129.999 174.832 130.119 174.256 130.199 173.616C130.279 172.96 130.335 172.272 130.367 171.552L130.535 167.088H141.791V178.32H138.047ZM127.607 182.784V176.928H143.639V182.784H140.159V180H131.087V182.784H127.607ZM159.291 180V167.088H163.011V180H159.291ZM152.787 171.216C154.483 171.232 155.755 171.616 156.603 172.368C157.467 173.104 157.899 174.152 157.899 175.512C157.899 176.936 157.411 178.048 156.435 178.848C155.459 179.632 154.075 180.024 152.283 180.024L145.995 180V167.088H149.715V171.216H152.787ZM151.947 177.36C152.667 177.376 153.219 177.224 153.603 176.904C153.987 176.584 154.179 176.104 154.179 175.464C154.179 174.824 153.987 174.368 153.603 174.096C153.219 173.808 152.667 173.656 151.947 173.64L149.715 173.616V177.36H151.947Z" fill="white"/>
</g>
<defs>
<clipPath id="clip0_205_19057">
<rect y="300" width="300" height="300" rx="4" transform="rotate(-90 0 300)" fill="white"/>
</clipPath>
</defs>
</svg>
