<svg width="300" height="300" viewBox="0 0 300 300" fill="none" xmlns="http://www.w3.org/2000/svg">
<g clip-path="url(#clip0_205_19065)">
<rect y="300" width="300" height="300" rx="4" transform="rotate(-90 0 300)" fill="#1C3A75"/>
<path d="M-42.3863 215.456C-27.2869 213.343 -11.911 214.45 2.72983 218.705C17.3706 222.961 30.9445 230.268 42.5584 240.146C54.1723 250.024 63.5631 262.25 70.1129 276.018C76.6628 289.786 80.2232 304.785 80.56 320.028L50.551 320.691C50.3078 309.684 47.7369 298.854 43.0075 288.912C38.278 278.971 31.4972 270.143 23.1111 263.011C14.7251 255.878 4.92377 250.602 -5.64792 247.529C-16.2196 244.456 -27.3221 243.657 -38.225 245.183L-42.3863 215.456Z" fill="#003F9E"/>
<path d="M79.3774 154.029C69.1961 162.582 62.1443 174.275 59.3299 187.27C56.5154 200.266 58.0976 213.829 63.8281 225.827C69.5585 237.826 79.1125 247.582 90.9892 253.561C102.866 259.541 116.392 261.406 129.444 258.863L117.97 199.97L79.3774 154.029Z" fill="#2163C7"/>
<path d="M233.051 208.205C243.679 212.159 255.209 213.02 266.306 210.688C277.403 208.357 287.612 202.929 295.751 195.033L253.97 151.97L233.051 208.205Z" fill="#2163C7"/>
<path d="M78.088 146V129.2H85.912C87.864 129.2 89.384 129.576 90.472 130.328C91.56 131.08 92.104 132.152 92.104 133.544C92.104 134.92 91.592 135.992 90.568 136.76C89.544 137.512 88.184 137.888 86.488 137.888L86.944 136.88C88.832 136.88 90.296 137.256 91.336 138.008C92.376 138.76 92.896 139.848 92.896 141.272C92.896 142.744 92.336 143.904 91.216 144.752C90.112 145.584 88.496 146 86.368 146H78.088ZM81.952 143.12H86.224C87.12 143.12 87.8 142.944 88.264 142.592C88.728 142.24 88.96 141.696 88.96 140.96C88.96 140.256 88.728 139.736 88.264 139.4C87.8 139.048 87.12 138.872 86.224 138.872H81.952V143.12ZM81.952 136.16H85.576C86.424 136.16 87.064 135.992 87.496 135.656C87.928 135.304 88.144 134.792 88.144 134.12C88.144 133.448 87.928 132.944 87.496 132.608C87.064 132.256 86.424 132.08 85.576 132.08H81.952V136.16ZM108.979 146V133.088H112.699V146H108.979ZM102.475 137.216C104.171 137.232 105.443 137.616 106.291 138.368C107.155 139.104 107.587 140.152 107.587 141.512C107.587 142.936 107.099 144.048 106.123 144.848C105.147 145.632 103.763 146.024 101.971 146.024L95.6828 146V133.088H99.4028V137.216H102.475ZM101.635 143.36C102.355 143.376 102.907 143.224 103.291 142.904C103.675 142.584 103.867 142.104 103.867 141.464C103.867 140.824 103.675 140.368 103.291 140.096C102.907 139.808 102.355 139.656 101.635 139.64L99.4028 139.616V143.36H101.635ZM116.308 146V133.088H126.652V136.16H119.188L120.028 135.344V146H116.308ZM134.145 146.192C132.769 146.192 131.545 145.904 130.473 145.328C129.417 144.752 128.577 143.968 127.953 142.976C127.345 141.968 127.041 140.824 127.041 139.544C127.041 138.248 127.345 137.104 127.953 136.112C128.577 135.104 129.417 134.32 130.473 133.76C131.545 133.184 132.769 132.896 134.145 132.896C135.505 132.896 136.721 133.184 137.793 133.76C138.865 134.32 139.705 135.096 140.313 136.088C140.921 137.08 141.225 138.232 141.225 139.544C141.225 140.824 140.921 141.968 140.313 142.976C139.705 143.968 138.865 144.752 137.793 145.328C136.721 145.904 135.505 146.192 134.145 146.192ZM134.145 143.12C134.769 143.12 135.329 142.976 135.825 142.688C136.321 142.4 136.713 141.992 137.001 141.464C137.289 140.92 137.433 140.28 137.433 139.544C137.433 138.792 137.289 138.152 137.001 137.624C136.713 137.096 136.321 136.688 135.825 136.4C135.329 136.112 134.769 135.968 134.145 135.968C133.521 135.968 132.961 136.112 132.465 136.4C131.969 136.688 131.569 137.096 131.265 137.624C130.977 138.152 130.833 138.792 130.833 139.544C130.833 140.28 130.977 140.92 131.265 141.464C131.569 141.992 131.969 142.4 132.465 142.688C132.961 142.976 133.521 143.12 134.145 143.12ZM152.493 144.32V136.16H148.269L148.197 137.816C148.164 138.504 148.125 139.16 148.077 139.784C148.029 140.408 147.933 140.976 147.789 141.488C147.661 141.984 147.469 142.408 147.213 142.76C146.957 143.096 146.613 143.328 146.181 143.456L142.485 142.928C142.949 142.928 143.325 142.792 143.613 142.52C143.901 142.232 144.125 141.84 144.285 141.344C144.445 140.832 144.565 140.256 144.645 139.616C144.725 138.96 144.781 138.272 144.812 137.552L144.98 133.088H156.237V144.32H152.493ZM142.053 148.784V142.928H158.085V148.784H154.605V146H145.533V148.784H142.053ZM160.441 146V133.088H164.161V138.128H169.777V133.088H173.521V146H169.777V141.176H164.161V146H160.441ZM190.401 146V133.088H194.121V146H190.401ZM183.897 137.216C185.593 137.232 186.865 137.616 187.713 138.368C188.577 139.104 189.009 140.152 189.009 141.512C189.009 142.936 188.521 144.048 187.545 144.848C186.569 145.632 185.185 146.024 183.393 146.024L177.105 146V133.088H180.825V137.216H183.897ZM183.057 143.36C183.777 143.376 184.329 143.224 184.713 142.904C185.097 142.584 185.289 142.104 185.289 141.464C185.289 140.824 185.097 140.368 184.713 140.096C184.329 139.808 183.777 139.656 183.057 139.64L180.825 139.616V143.36H183.057ZM204.042 146.192C202.57 146.192 201.274 145.904 200.154 145.328C199.05 144.752 198.194 143.968 197.586 142.976C196.978 141.968 196.674 140.824 196.674 139.544C196.674 138.248 196.97 137.104 197.562 136.112C198.17 135.104 198.994 134.32 200.034 133.76C201.074 133.184 202.25 132.896 203.562 132.896C204.826 132.896 205.962 133.168 206.97 133.712C207.994 134.24 208.802 135.008 209.394 136.016C209.986 137.008 210.282 138.2 210.282 139.592C210.282 139.736 210.274 139.904 210.258 140.096C210.242 140.272 210.226 140.44 210.21 140.6H199.722V138.416H208.242L206.802 139.064C206.802 138.392 206.666 137.808 206.394 137.312C206.122 136.816 205.746 136.432 205.266 136.16C204.786 135.872 204.226 135.728 203.586 135.728C202.946 135.728 202.378 135.872 201.882 136.16C201.402 136.432 201.026 136.824 200.754 137.336C200.482 137.832 200.346 138.424 200.346 139.112V139.688C200.346 140.392 200.498 141.016 200.802 141.56C201.122 142.088 201.562 142.496 202.122 142.784C202.698 143.056 203.37 143.192 204.138 143.192C204.826 143.192 205.426 143.088 205.938 142.88C206.466 142.672 206.946 142.36 207.378 141.944L209.37 144.104C208.778 144.776 208.034 145.296 207.138 145.664C206.242 146.016 205.21 146.192 204.042 146.192ZM79.552 179.848C78.88 179.848 78.216 179.744 77.56 179.536C76.904 179.328 76.368 179.04 75.952 178.672L77.32 176.008C77.608 176.264 77.936 176.464 78.304 176.608C78.688 176.752 79.064 176.824 79.432 176.824C79.96 176.824 80.376 176.696 80.68 176.44C81 176.2 81.288 175.792 81.544 175.216L82.216 173.632L82.504 173.224L87.136 162.088H90.736L84.904 175.792C84.488 176.832 84.008 177.648 83.464 178.24C82.936 178.832 82.344 179.248 81.688 179.488C81.048 179.728 80.336 179.848 79.552 179.848ZM81.76 175.504L76 162.088H79.864L84.328 172.888L81.76 175.504ZM98.3346 175.192C96.9426 175.192 95.7026 174.912 94.6146 174.352C93.5266 173.776 92.6706 172.984 92.0466 171.976C91.4386 170.968 91.1346 169.824 91.1346 168.544C91.1346 167.248 91.4386 166.104 92.0466 165.112C92.6706 164.104 93.5266 163.32 94.6146 162.76C95.7026 162.184 96.9426 161.896 98.3346 161.896C99.6946 161.896 100.879 162.184 101.887 162.76C102.895 163.32 103.639 164.128 104.119 165.184L101.215 166.744C100.879 166.136 100.455 165.688 99.9426 165.4C99.4466 165.112 98.9026 164.968 98.3106 164.968C97.6706 164.968 97.0946 165.112 96.5826 165.4C96.0706 165.688 95.6626 166.096 95.3586 166.624C95.0706 167.152 94.9266 167.792 94.9266 168.544C94.9266 169.296 95.0706 169.936 95.3586 170.464C95.6626 170.992 96.0706 171.4 96.5826 171.688C97.0946 171.976 97.6706 172.12 98.3106 172.12C98.9026 172.12 99.4466 171.984 99.9426 171.712C100.455 171.424 100.879 170.968 101.215 170.344L104.119 171.928C103.639 172.968 102.895 173.776 101.887 174.352C100.879 174.912 99.6946 175.192 98.3346 175.192ZM104.551 174.976L104.743 171.904C104.839 171.92 104.935 171.936 105.031 171.952C105.127 171.952 105.215 171.952 105.295 171.952C105.743 171.952 106.095 171.824 106.351 171.568C106.607 171.312 106.799 170.968 106.927 170.536C107.055 170.088 107.143 169.584 107.191 169.024C107.255 168.464 107.303 167.88 107.335 167.272L107.527 162.088H118.567V175H114.823V164.248L115.663 165.16H109.999L110.791 164.2L110.623 167.44C110.575 168.592 110.479 169.648 110.335 170.608C110.207 171.568 109.991 172.4 109.687 173.104C109.383 173.792 108.975 174.328 108.463 174.712C107.951 175.08 107.295 175.264 106.495 175.264C106.207 175.264 105.903 175.24 105.583 175.192C105.263 175.144 104.919 175.072 104.551 174.976ZM128.215 175.192C126.839 175.192 125.615 174.904 124.543 174.328C123.487 173.752 122.647 172.968 122.023 171.976C121.415 170.968 121.111 169.824 121.111 168.544C121.111 167.248 121.415 166.104 122.023 165.112C122.647 164.104 123.487 163.32 124.543 162.76C125.615 162.184 126.839 161.896 128.215 161.896C129.575 161.896 130.791 162.184 131.863 162.76C132.935 163.32 133.775 164.096 134.383 165.088C134.991 166.08 135.295 167.232 135.295 168.544C135.295 169.824 134.991 170.968 134.383 171.976C133.775 172.968 132.935 173.752 131.863 174.328C130.791 174.904 129.575 175.192 128.215 175.192ZM128.215 172.12C128.839 172.12 129.399 171.976 129.895 171.688C130.391 171.4 130.783 170.992 131.071 170.464C131.359 169.92 131.503 169.28 131.503 168.544C131.503 167.792 131.359 167.152 131.071 166.624C130.783 166.096 130.391 165.688 129.895 165.4C129.399 165.112 128.839 164.968 128.215 164.968C127.591 164.968 127.031 165.112 126.535 165.4C126.039 165.688 125.639 166.096 125.335 166.624C125.047 167.152 124.903 167.792 124.903 168.544C124.903 169.28 125.047 169.92 125.335 170.464C125.639 170.992 126.039 171.4 126.535 171.688C127.031 171.976 127.591 172.12 128.215 172.12ZM137.87 175V162.088H144.47C146.086 162.088 147.35 162.384 148.262 162.976C149.174 163.552 149.63 164.368 149.63 165.424C149.63 166.48 149.198 167.312 148.334 167.92C147.486 168.512 146.358 168.808 144.95 168.808L145.334 167.944C146.902 167.944 148.07 168.232 148.838 168.808C149.622 169.384 150.014 170.224 150.014 171.328C150.014 172.464 149.582 173.36 148.718 174.016C147.854 174.672 146.534 175 144.758 175H137.87ZM141.302 172.456H144.446C145.134 172.456 145.646 172.344 145.982 172.12C146.334 171.88 146.51 171.52 146.51 171.04C146.51 170.544 146.35 170.184 146.03 169.96C145.71 169.72 145.206 169.6 144.518 169.6H141.302V172.456ZM141.302 167.392H144.134C144.79 167.392 145.278 167.272 145.598 167.032C145.934 166.792 146.102 166.448 146.102 166C146.102 165.536 145.934 165.192 145.598 164.968C145.278 164.744 144.79 164.632 144.134 164.632H141.302V167.392ZM152.8 175V162.088H156.52V169.768L162.808 162.088H166.24V175H162.52V167.32L156.256 175H152.8ZM177.975 175V170.704L178.503 171.304H174.927C173.071 171.304 171.615 170.92 170.559 170.152C169.503 169.384 168.975 168.28 168.975 166.84C168.975 165.304 169.527 164.128 170.631 163.312C171.751 162.496 173.255 162.088 175.143 162.088H181.311V175H177.975ZM168.783 175L172.215 170.08H176.031L172.767 175H168.783ZM177.975 169.552V164.176L178.503 165.136H175.215C174.447 165.136 173.847 165.28 173.415 165.568C172.999 165.856 172.791 166.32 172.791 166.96C172.791 168.192 173.583 168.808 175.167 168.808H178.503L177.975 169.552Z" fill="white"/>
<path d="M-44.6733 40.098C-35.6919 49.9033 -23.7077 56.4474 -10.6033 58.7023C2.50115 60.9571 15.9834 58.795 27.7256 52.5555C39.4678 46.3161 48.8047 36.3527 54.2697 24.2306C59.7346 12.1085 61.018 -1.48552 57.9181 -14.4162L-0.428724 -0.428751L-44.6733 40.098Z" fill="#2163C7"/>
</g>
<defs>
<clipPath id="clip0_205_19065">
<rect y="300" width="300" height="300" rx="4" transform="rotate(-90 0 300)" fill="white"/>
</clipPath>
</defs>
</svg>
