<svg width="1300" height="456" viewBox="0 0 1300 456" fill="none" xmlns="http://www.w3.org/2000/svg">
<g clip-path="url(#clip0_610_10723)">
<rect y="456" width="456" height="1300" rx="4" transform="rotate(-90 0 456)" fill="url(#paint0_linear_610_10723)"/>
<path d="M80.7439 165.69C95.92 158.46 112.574 154.873 129.381 155.214L128.772 185.224C116.637 184.978 104.611 187.568 93.6529 192.788L80.7439 165.69Z" fill="#003F9E"/>
<path d="M604.969 31.6134C615.762 49.4022 621.187 69.9302 620.591 90.7288L590.587 89.8692C591.018 74.8511 587.1 60.0285 579.307 47.1837L604.969 31.6134Z" fill="#003F9E"/>
<path d="M950.677 61.5836C961.355 47.2614 975.867 35.8351 992.782 28.431C1009.7 21.0268 1028.43 17.9004 1047.14 19.3597L1045 47.3549C1031.49 46.3011 1017.96 48.5586 1005.75 53.9049C993.532 59.2512 983.054 67.5018 975.343 77.8435L950.677 61.5836Z" fill="#003F9E"/>
<path d="M744.01 22.074C762.668 24.0819 780.482 30.917 795.694 41.9056C810.907 52.8943 822.993 67.6572 830.763 84.7394L803.44 97.1669C797.83 84.8323 789.102 74.1724 778.118 66.2379C767.133 58.3033 754.271 53.3679 740.798 51.918L744.01 22.074Z" fill="#003F9E"/>
<path d="M152.627 231.996C169.765 239.641 184.615 251.621 195.714 266.753C206.813 281.885 213.777 299.649 215.92 318.292L186.1 321.72C184.553 308.258 179.524 295.432 171.51 284.505C163.496 273.579 152.773 264.929 140.398 259.408L152.627 231.996Z" fill="#003F9E"/>
<path d="M540.531 159C531.148 175.252 517.692 188.779 501.489 198.247C485.286 207.715 466.896 212.798 448.131 212.994L447.817 182.979C461.366 182.837 474.645 179.167 486.345 172.331C498.044 165.494 507.761 155.727 514.536 143.992L540.531 159Z" fill="#003F9E"/>
<path d="M758.733 215.592C773.331 203.799 790.749 196.013 809.272 193.001C827.795 189.99 846.784 191.857 864.365 198.419L853.87 226.541C841.175 221.803 827.464 220.455 814.089 222.629C800.714 224.803 788.136 230.425 777.596 238.941L758.733 215.592Z" fill="#003F9E"/>
<path d="M262 10.2942C267.449 28.2519 268.125 47.3196 263.96 65.6179C259.796 83.9163 250.936 100.814 238.253 114.645L216.129 94.3585C225.288 84.3712 231.686 72.17 234.692 58.9573C237.699 45.7446 237.211 31.9764 233.277 19.0096L262 10.2942Z" fill="#003F9E"/>
<path d="M1249.53 167C1240.15 183.252 1226.69 196.779 1210.49 206.247C1194.29 215.715 1175.9 220.798 1157.13 220.994L1156.82 190.979C1170.37 190.837 1183.65 187.167 1195.34 180.331C1207.04 173.494 1216.76 163.727 1223.54 151.992L1249.53 167Z" fill="#003F9E"/>
<path d="M953.354 266.668C972.056 265.114 990.84 268.46 1007.85 276.376C1024.87 284.293 1039.53 296.506 1050.39 311.812L1025.9 329.178C1018.06 318.126 1007.48 309.308 995.193 303.592C982.907 297.876 969.344 295.46 955.84 296.582L953.354 266.668Z" fill="#003F9E"/>
<path d="M-17.0365 302.441C-4.1444 299.184 7.30062 291.737 15.5008 281.27C23.701 270.802 28.1917 257.907 28.2676 244.611C28.3435 231.314 24.0002 218.368 15.9201 207.808C7.83989 197.248 -3.51938 189.671 -16.3734 186.267L-31.7314 244.268L-17.0365 302.441Z" fill="#2163C7"/>
<path d="M127.027 477.276C136.454 458.109 151.353 442.167 169.84 431.467C188.327 420.767 209.572 415.789 230.888 417.164C252.204 418.538 272.634 426.202 289.594 439.188C306.555 452.173 319.283 469.896 326.171 490.115L297.758 499.794C292.785 485.194 283.594 472.397 271.347 463.021C259.101 453.644 244.349 448.11 228.957 447.118C213.565 446.126 198.225 449.72 184.876 457.446C171.527 465.172 160.769 476.683 153.962 490.523L127.027 477.276Z" fill="#003F9E"/>
<path d="M632.764 324.616C654.12 320.039 676.174 321.837 696.138 329.782C716.101 337.728 733.078 351.464 744.921 369.254C756.763 387.044 762.94 408.089 762.67 429.728C762.4 451.366 755.695 472.626 743.404 490.819L718.236 474.35C727.112 461.213 731.953 445.862 732.148 430.237C732.343 414.613 727.883 399.417 719.332 386.571C710.78 373.725 698.522 363.807 684.107 358.07C669.692 352.332 653.767 351.034 638.347 354.339L632.764 324.616Z" fill="#003F9E"/>
<path d="M8.6088 415.764C19.2365 419.717 30.767 420.578 41.864 418.247C52.961 415.916 63.1702 410.487 71.3086 402.591L29.5283 359.529L8.6088 415.764Z" fill="#2163C7"/>
<path d="M345.65 192.167C335.769 194.105 326.366 197.971 317.979 203.543C309.592 209.115 302.384 216.284 296.768 224.642C291.152 232.999 287.236 242.381 285.246 252.252C283.255 262.122 283.228 272.289 285.167 282.17L339.15 271.58C338.602 268.788 338.61 265.916 339.172 263.127C339.735 260.338 340.841 257.687 342.428 255.326C344.015 252.964 346.051 250.939 348.421 249.364C350.791 247.79 353.447 246.698 356.239 246.15L345.65 192.167Z" fill="#2163C7"/>
<path d="M662.65 173.167C642.694 177.081 625.111 188.763 613.768 205.642L650.067 230.035C654.94 222.784 662.495 217.765 671.068 216.083L662.65 173.167Z" fill="#2163C7"/>
<path d="M387.552 416.504C389.098 429.921 394.162 442.693 402.23 453.525C410.298 464.358 421.084 472.867 433.497 478.191C445.91 483.516 459.509 485.467 472.919 483.848C486.328 482.228 499.071 477.095 509.86 468.968L463.724 407.724L387.552 416.504Z" fill="#2163C7"/>
<path d="M474.172 388.985C489.333 388.621 504.045 383.769 516.448 375.044C528.852 366.318 538.389 354.11 543.855 339.964C549.32 325.818 550.468 310.369 547.153 295.57C543.838 280.771 536.209 267.288 525.232 256.825L503.687 279.43C510.195 285.632 514.716 293.624 516.681 302.396C518.646 311.168 517.966 320.325 514.726 328.71C511.487 337.095 505.833 344.331 498.481 349.504C491.129 354.676 482.408 357.552 473.422 357.767L474.172 388.985Z" fill="#2163C7"/>
<path d="M843.712 465.263C854.096 478.714 868.653 488.335 885.098 492.615C901.544 496.895 918.944 495.59 934.568 488.907C950.191 482.223 963.152 470.539 971.414 455.69C979.675 440.841 982.771 423.668 980.213 406.868L904.409 418.41L843.712 465.263Z" fill="#2163C7"/>
<path d="M971.712 160.263C977.865 168.233 985.528 174.914 994.262 179.924C1003 184.934 1012.63 188.174 1022.62 189.459L1029.97 132.364C1027.48 132.043 1025.08 131.236 1022.9 129.987C1020.72 128.739 1018.82 127.074 1017.28 125.087L971.712 160.263Z" fill="#2163C7"/>
<path d="M1138.64 427.051C1147 432.668 1156.38 436.583 1166.25 438.573C1176.12 440.564 1186.29 440.591 1196.17 438.653C1206.05 436.714 1215.45 432.849 1223.84 427.277C1232.23 421.705 1239.43 414.535 1245.05 406.178L1181.41 363.41L1138.64 427.051Z" fill="#2163C7"/>
<path d="M391.97 25.5268C383.816 37.1087 379.03 50.7228 378.141 64.8592C377.253 78.9956 380.298 93.1017 386.938 105.613L427.645 84.0086C424.996 79.017 423.781 73.3891 424.136 67.7491C424.49 62.1092 426.4 56.6776 429.653 52.0568L391.97 25.5268Z" fill="#2163C7"/>
<path d="M63.6414 81.0513C75.5133 89.0293 89.3801 93.5277 103.675 94.0379C117.969 94.5481 132.121 91.0498 144.532 83.9383L116.239 34.564C113.039 36.3976 109.39 37.2997 105.704 37.1681C102.019 37.0366 98.443 35.8767 95.3819 33.8196L63.6414 81.0513Z" fill="#2163C7"/>
<path d="M1114.64 81.0513C1124.4 87.6107 1135.54 91.837 1147.2 93.4034C1158.85 94.9699 1170.71 93.8343 1181.86 90.0847C1193 86.3351 1203.14 80.0719 1211.48 71.7795C1219.82 63.4871 1226.14 53.3877 1229.95 42.2625L1202.41 32.8272C1200.04 39.7288 1196.12 45.9939 1190.95 51.1381C1185.78 56.2823 1179.49 60.1677 1172.58 62.4938C1165.66 64.8199 1158.3 65.5243 1151.07 64.5526C1143.84 63.5808 1136.93 60.959 1130.88 56.8899L1114.64 81.0513Z" fill="#2163C7"/>
</g>
<defs>
<linearGradient id="paint0_linear_610_10723" x1="-8.10224e-08" y1="1048.5" x2="654.996" y2="1050.67" gradientUnits="userSpaceOnUse">
<stop stop-color="#5184D3"/>
<stop offset="1" stop-color="white"/>
</linearGradient>
<clipPath id="clip0_610_10723">
<rect y="456" width="456" height="1300" rx="4" transform="rotate(-90 0 456)" fill="white"/>
</clipPath>
</defs>
</svg>
