<svg width="962" height="583" viewBox="0 0 962 583" fill="none" xmlns="http://www.w3.org/2000/svg">
<g clip-path="url(#clip0_610_10723)">
<rect y="583" width="583" height="962" rx="4" transform="rotate(-90 0 583)" fill="#1C5D9E"/>
<path d="M80.7439 292.69C95.9201 285.46 112.574 281.873 129.381 282.214L128.772 312.224C116.637 311.978 104.611 314.568 93.6529 319.788L80.7439 292.69Z" fill="#1C3A75"/>
<path d="M604.969 158.613C615.762 176.402 621.187 196.93 620.591 217.729L590.587 216.869C591.018 201.851 587.1 187.028 579.307 174.184L604.969 158.613Z" fill="#1C3A75"/>
<path d="M473.969 29.6134C484.762 47.4022 490.187 67.9302 489.591 88.7288L459.587 87.8692C460.018 72.8511 456.1 58.0285 448.307 45.1837L473.969 29.6134Z" fill="#1C3A75"/>
<path d="M53.6296 94.1492C46.7875 113.799 34.4149 131.055 17.9995 143.84L-0.444985 120.159C11.4081 110.927 20.342 98.4676 25.2824 84.2789L53.6296 94.1492Z" fill="#1C3A75"/>
<path d="M901.677 248.584C912.355 234.261 926.867 222.835 943.782 215.431C960.698 208.027 979.434 204.9 998.143 206.36L995.999 234.355C982.489 233.301 968.961 235.559 956.746 240.905C944.532 246.251 934.054 254.502 926.343 264.843L901.677 248.584Z" fill="#1C3A75"/>
<path d="M744.01 149.074C762.668 151.082 780.482 157.917 795.694 168.906C810.907 179.894 822.993 194.657 830.763 211.739L803.44 224.167C797.83 211.832 789.102 201.172 778.118 193.238C767.133 185.303 754.271 180.368 740.798 178.918L744.01 149.074Z" fill="#1C3A75"/>
<path d="M152.627 358.996C169.765 366.641 184.615 378.621 195.714 393.753C206.813 408.885 213.777 426.649 215.92 445.292L186.1 448.72C184.553 435.258 179.524 422.432 171.51 411.505C163.496 400.579 152.773 391.929 140.398 386.408L152.627 358.996Z" fill="#1C3A75"/>
<path d="M540.531 286C531.148 302.252 517.692 315.779 501.489 325.247C485.286 334.715 466.896 339.798 448.131 339.994L447.817 309.979C461.366 309.837 474.645 306.167 486.345 299.331C498.044 292.494 507.761 282.727 514.536 270.992L540.531 286Z" fill="#1C3A75"/>
<path d="M758.733 342.592C773.331 330.799 790.749 323.013 809.272 320.001C827.795 316.99 846.784 318.857 864.365 325.419L853.87 353.541C841.175 348.803 827.464 347.455 814.089 349.629C800.714 351.803 788.136 357.425 777.596 365.941L758.733 342.592Z" fill="#1C3A75"/>
<path d="M262 137.294C267.449 155.252 268.125 174.32 263.96 192.618C259.796 210.916 250.936 227.814 238.253 241.645L216.129 221.358C225.288 211.371 231.686 199.17 234.692 185.957C237.699 172.745 237.211 158.976 233.277 146.01L262 137.294Z" fill="#1C3A75"/>
<path d="M1059.53 54C1046.03 77.3915 1024.25 94.8734 998.487 102.998C972.728 111.123 944.859 109.301 920.377 97.8905C895.895 86.4805 876.578 66.3112 866.234 41.3602C855.89 16.4093 855.271 -11.512 864.498 -36.8969L892.709 -26.6422C886.045 -8.31246 886.493 11.8487 893.962 29.865C901.431 47.8814 915.379 62.4451 933.057 70.6839C950.735 78.9227 970.858 80.2386 989.458 74.3719C1008.06 68.5053 1023.78 55.8821 1033.54 38.9918L1059.53 54Z" fill="#1C3A75"/>
<path d="M953.354 393.668C972.056 392.114 990.84 395.46 1007.85 403.376C1024.87 411.293 1039.53 423.506 1050.39 438.812L1025.9 456.178C1018.06 445.126 1007.48 436.308 995.193 430.592C982.907 424.876 969.344 422.46 955.84 423.582L953.354 393.668Z" fill="#1C3A75"/>
<path d="M-17.0365 429.441C-4.1444 426.184 7.30062 418.737 15.5008 408.27C23.701 397.802 28.1917 384.907 28.2676 371.611C28.3435 358.314 24.0002 345.368 15.9201 334.808C7.83989 324.248 -3.51939 316.671 -16.3734 313.267L-31.7314 371.268L-17.0365 429.441Z" fill="#1782FF"/>
<path d="M127.027 604.276C136.454 585.109 151.353 569.167 169.84 558.467C188.327 547.767 209.572 542.789 230.888 544.164C252.204 545.538 272.634 553.202 289.594 566.188C306.555 579.173 319.283 596.896 326.171 617.115L297.758 626.794C292.785 612.194 283.594 599.397 271.347 590.021C259.101 580.644 244.349 575.11 228.957 574.118C213.565 573.126 198.225 576.72 184.876 584.446C171.527 592.172 160.769 603.683 153.962 617.523L127.027 604.276Z" fill="#1C3A75"/>
<path d="M632.764 451.616C654.12 447.039 676.174 448.837 696.138 456.782C716.101 464.728 733.078 478.464 744.921 496.254C756.763 514.044 762.94 535.089 762.67 556.728C762.4 578.366 755.695 599.626 743.404 617.819L718.236 601.35C727.112 588.213 731.953 572.862 732.148 557.237C732.343 541.613 727.883 526.417 719.332 513.571C710.78 500.725 698.522 490.807 684.107 485.07C669.692 479.332 653.767 478.034 638.347 481.339L632.764 451.616Z" fill="#1C3A75"/>
<path d="M8.6088 542.764C19.2365 546.717 30.767 547.578 41.864 545.247C52.961 542.916 63.1702 537.487 71.3086 529.591L29.5283 486.529L8.6088 542.764Z" fill="#1782FF"/>
<path d="M345.65 319.167C335.769 321.105 326.366 324.971 317.979 330.543C309.592 336.115 302.384 343.284 296.768 351.642C291.152 359.999 287.236 369.381 285.246 379.252C283.255 389.122 283.228 399.289 285.167 409.17L339.15 398.58C338.602 395.788 338.61 392.916 339.172 390.127C339.735 387.338 340.841 384.687 342.428 382.326C344.015 379.964 346.051 377.939 348.421 376.364C350.791 374.79 353.447 373.698 356.239 373.15L345.65 319.167Z" fill="#1782FF"/>
<path d="M662.65 300.167C642.694 304.081 625.111 315.763 613.768 332.642L650.067 357.035C654.94 349.784 662.495 344.765 671.068 343.083L662.65 300.167Z" fill="#1782FF"/>
<path d="M387.552 543.504C389.098 556.922 394.162 569.693 402.23 580.525C410.298 591.358 421.084 599.867 433.497 605.191C445.91 610.516 459.509 612.467 472.919 610.848C486.328 609.228 499.071 604.095 509.86 595.968L463.724 534.724L387.552 543.504Z" fill="#1782FF"/>
<path d="M474.172 515.985C489.333 515.621 504.045 510.769 516.448 502.044C528.852 493.318 538.389 481.11 543.855 466.964C549.32 452.818 550.468 437.369 547.153 422.57C543.838 407.771 536.209 394.288 525.232 383.825L503.687 406.43C510.195 412.632 514.716 420.624 516.681 429.396C518.646 438.168 517.966 447.325 514.726 455.71C511.487 464.095 505.833 471.331 498.481 476.504C491.129 481.676 482.408 484.552 473.422 484.767L474.172 515.985Z" fill="#1782FF"/>
<path d="M843.712 592.263C854.096 605.714 868.653 615.335 885.098 619.615C901.544 623.895 918.944 622.59 934.568 615.907C950.191 609.223 963.152 597.539 971.414 582.69C979.675 567.841 982.771 550.668 980.213 533.868L904.409 545.41L843.712 592.263Z" fill="#1782FF"/>
<path d="M707.712 241.263C713.865 249.233 721.528 255.914 730.262 260.924C738.997 265.934 748.633 269.174 758.62 270.459L765.97 213.364C763.481 213.043 761.079 212.236 758.902 210.987C756.725 209.739 754.815 208.074 753.282 206.087L707.712 241.263Z" fill="#1782FF"/>
<path d="M769.309 441.555C775.448 460.942 789.036 477.097 807.086 486.465C825.135 495.834 846.167 497.649 865.554 491.51L842.409 418.41L769.309 441.555Z" fill="#1782FF"/>
<path d="M391.97 152.527C383.816 164.109 379.03 177.723 378.141 191.859C377.253 205.996 380.298 220.102 386.938 232.613L427.645 211.009C424.996 206.017 423.781 200.389 424.136 194.749C424.49 189.109 426.4 183.678 429.653 179.057L391.97 152.527Z" fill="#1782FF"/>
<path d="M541.641 49.0513C551.402 55.6107 562.541 59.837 574.196 61.4034C585.852 62.9699 597.711 61.8343 608.857 58.0847C620.004 54.3351 630.138 48.0719 638.477 39.7795C646.816 31.4871 653.135 21.3877 656.947 10.2625L629.408 0.827237C627.044 7.72877 623.123 13.9939 617.95 19.1381C612.777 24.2823 606.49 28.1677 599.576 30.4938C592.661 32.8199 585.304 33.5243 578.074 32.5526C570.843 31.5808 563.933 28.959 557.878 24.8899L541.641 49.0513Z" fill="#1782FF"/>
<path d="M768.283 101.542C781.071 103.075 794.038 101.362 805.989 96.5617C817.94 91.7613 828.489 84.0281 836.663 74.0756L814.168 55.5998C809.097 61.7739 802.553 66.5712 795.139 69.5491C787.725 72.527 779.681 73.5896 771.748 72.6387L768.283 101.542Z" fill="#1782FF"/>
<path d="M127.641 75.0513C138.704 82.4856 151.514 86.9079 164.807 87.8817C178.1 88.8556 191.418 86.3475 203.446 80.6048L190.904 54.335C183.442 57.8975 175.18 59.4534 166.934 58.8493C158.688 58.2451 150.741 55.5018 143.878 50.8899L127.641 75.0513Z" fill="#1782FF"/>
<path d="M66.6414 213.051C78.5133 221.029 92.3801 225.528 106.675 226.038C120.969 226.548 135.121 223.05 147.532 215.938L119.239 166.564C116.039 168.398 112.39 169.3 108.704 169.168C105.019 169.037 101.443 167.877 98.3819 165.82L66.6414 213.051Z" fill="#1782FF"/>
</g>
<defs>
<clipPath id="clip0_610_10723">
<rect y="583" width="583" height="962" rx="4" transform="rotate(-90 0 583)" fill="white"/>
</clipPath>
</defs>
</svg>
