<svg width="40" height="40" viewBox="0 0 40 40" fill="none" xmlns="http://www.w3.org/2000/svg">
<rect width="40" height="40" rx="20" fill="#F4F6FB"/>
<g clip-path="url(#clip0_36_2706)">
<path d="M15.65 28.91C15.62 28.91 15.58 28.93 15.55 28.93C13.61 27.97 12.03 26.38 11.06 24.44C11.06 24.41 11.08 24.37 11.08 24.34C12.3 24.7 13.56 24.97 14.81 25.18C15.03 26.44 15.29 27.69 15.65 28.91Z" fill="#1C3A75"/>
<path d="M28.94 24.45C27.95 26.44 26.3 28.05 24.29 29.02C24.67 27.75 24.99 26.47 25.2 25.18C26.46 24.97 27.7 24.7 28.92 24.34C28.91 24.38 28.94 24.42 28.94 24.45Z" fill="#1C3A75"/>
<path d="M29.02 15.71C27.76 15.33 26.49 15.02 25.2 14.8C24.99 13.51 24.68 12.23 24.29 10.98C26.36 11.97 28.03 13.64 29.02 15.71Z" fill="#1C3A75"/>
<path d="M15.65 11.09C15.29 12.31 15.03 13.55 14.82 14.81C13.53 15.01 12.25 15.33 10.98 15.71C11.95 13.7 13.56 12.05 15.55 11.06C15.58 11.06 15.62 11.09 15.65 11.09Z" fill="#1C3A75"/>
<path d="M23.49 14.59C21.17 14.33 18.83 14.33 16.51 14.59C16.76 13.22 17.08 11.85 17.53 10.53C17.55 10.45 17.54 10.39 17.55 10.31C18.34 10.12 19.15 10 20 10C20.84 10 21.66 10.12 22.44 10.31C22.45 10.39 22.45 10.45 22.47 10.53C22.92 11.86 23.24 13.22 23.49 14.59Z" fill="#1C3A75"/>
<path d="M14.59 23.49C13.21 23.24 11.85 22.92 10.53 22.47C10.45 22.45 10.39 22.46 10.31 22.45C10.12 21.66 10 20.85 10 20C10 19.16 10.12 18.34 10.31 17.56C10.39 17.55 10.45 17.55 10.53 17.53C11.86 17.09 13.21 16.76 14.59 16.51C14.34 18.83 14.34 21.17 14.59 23.49Z" fill="#1C3A75"/>
<path d="M30 20C30 20.85 29.88 21.66 29.69 22.45C29.61 22.46 29.55 22.45 29.47 22.47C28.14 22.91 26.78 23.24 25.41 23.49C25.67 21.17 25.67 18.83 25.41 16.51C26.78 16.76 28.15 17.08 29.47 17.53C29.55 17.55 29.61 17.56 29.69 17.56C29.88 18.35 30 19.16 30 20Z" fill="#1C3A75"/>
<path d="M23.49 25.41C23.24 26.79 22.92 28.15 22.47 29.47C22.45 29.55 22.45 29.61 22.44 29.69C21.66 29.88 20.84 30 20 30C19.15 30 18.34 29.88 17.55 29.69C17.54 29.61 17.55 29.55 17.53 29.47C17.09 28.14 16.76 26.79 16.51 25.41C17.67 25.54 18.83 25.63 20 25.63C21.17 25.63 22.34 25.54 23.49 25.41Z" fill="#1C3A75"/>
<path d="M23.7633 23.7633C21.2622 24.0789 18.7378 24.0789 16.2367 23.7633C15.9211 21.2622 15.9211 18.7378 16.2367 16.2367C18.7378 15.9211 21.2622 15.9211 23.7633 16.2367C24.0789 18.7378 24.0789 21.2622 23.7633 23.7633Z" fill="#1C3A75"/>
</g>
<defs>
<clipPath id="clip0_36_2706">
<rect width="24" height="24" fill="white" transform="translate(8 8)"/>
</clipPath>
</defs>
</svg>
