<svg width="60" height="56" viewBox="0 0 60 56" fill="none" xmlns="http://www.w3.org/2000/svg">
<rect width="60" height="56" rx="12" fill="white"/>
<path d="M34.8883 16.3333H25.1116C20.865 16.3333 18.3333 18.865 18.3333 23.1116V32.8766C18.3333 37.135 20.865 39.6666 25.1116 39.6666H34.8766C39.1233 39.6666 41.655 37.135 41.655 32.8883V23.1116C41.6666 18.865 39.135 16.3333 34.8883 16.3333ZM30 32.5266C27.5033 32.5266 25.4733 30.4966 25.4733 28C25.4733 25.5033 27.5033 23.4733 30 23.4733C32.4966 23.4733 34.5266 25.5033 34.5266 28C34.5266 30.4966 32.4966 32.5266 30 32.5266ZM36.9066 22.0266C36.8483 22.1666 36.7666 22.295 36.6616 22.4116C36.545 22.5166 36.4166 22.5983 36.2766 22.6566C36.1366 22.715 35.985 22.75 35.8333 22.75C35.5183 22.75 35.2266 22.6333 35.005 22.4116C34.9 22.295 34.8183 22.1666 34.76 22.0266C34.7016 21.8866 34.6666 21.735 34.6666 21.5833C34.6666 21.4316 34.7016 21.28 34.76 21.14C34.8183 20.9883 34.9 20.8716 35.005 20.755C35.2733 20.4866 35.6816 20.3583 36.055 20.44C36.1366 20.4516 36.2066 20.475 36.2766 20.51C36.3466 20.5333 36.4166 20.5683 36.4866 20.615C36.545 20.65 36.6033 20.7083 36.6616 20.755C36.7666 20.8716 36.8483 20.9883 36.9066 21.14C36.965 21.28 37 21.4316 37 21.5833C37 21.735 36.965 21.8866 36.9066 22.0266Z" fill="#1C3A75"/>
</svg>
