<svg width="60" height="56" viewBox="0 0 60 56" fill="none" xmlns="http://www.w3.org/2000/svg">
<rect width="60" height="56" rx="12" fill="white"/>
<path d="M32.8214 20.4049C32.266 20.3023 31.7559 20.6567 31.6502 21.1988C31.5445 21.741 31.9 22.2703 32.4403 22.3764C34.0669 22.6935 35.3229 23.9526 35.6413 25.5848V25.586C35.7319 26.0558 36.1455 26.3974 36.6219 26.3974C36.6858 26.3974 36.7497 26.3916 36.8148 26.3799C37.3551 26.2715 37.7106 25.7434 37.6049 25.2001C37.1297 22.7623 35.2532 20.8794 32.8214 20.4049Z" fill="#1C3A75"/>
<path d="M32.7488 16.3426C32.4885 16.3053 32.2271 16.3822 32.0191 16.5478C31.8053 16.7156 31.6717 16.9581 31.6427 17.2298C31.5811 17.7789 31.9773 18.2756 32.5257 18.3374C36.3076 18.7594 39.2472 21.7055 39.6725 25.4993C39.7294 26.0076 40.1558 26.3912 40.6647 26.3912C40.703 26.3912 40.7402 26.3888 40.7786 26.3842C41.0446 26.355 41.2817 26.2233 41.449 26.0134C41.6151 25.8036 41.6906 25.5424 41.6604 25.2754C41.1306 20.542 37.4672 16.8684 32.7488 16.3426Z" fill="#1C3A75"/>
<path fill-rule="evenodd" clip-rule="evenodd" d="M28.8703 29.1345C33.5243 33.7871 34.58 28.4045 37.5432 31.3656C40.4 34.2215 42.0419 34.7937 38.4224 38.4122C37.9691 38.7765 35.0885 43.16 24.9653 33.0396C14.8409 22.918 19.2218 20.0345 19.5863 19.5813C23.2145 15.9528 23.7768 17.6043 26.6336 20.4602C29.5967 23.4226 24.2164 24.4818 28.8703 29.1345Z" fill="#1C3A75"/>
</svg>
