<svg width="60" height="56" viewBox="0 0 60 56" fill="none" xmlns="http://www.w3.org/2000/svg">
<rect width="60" height="56" rx="12" fill="white"/>
<path d="M41.375 22.75V27.125C41.375 27.3571 41.2828 27.5796 41.1187 27.7437C40.9546 27.9078 40.7321 28 40.5 28C38.6721 28.0042 36.8706 27.5647 35.25 26.7192V31.0625C35.25 33.2671 34.3742 35.3814 32.8153 36.9403C31.2564 38.4992 29.1421 39.375 26.9375 39.375C24.7329 39.375 22.6186 38.4992 21.0597 36.9403C19.5008 35.3814 18.625 33.2671 18.625 31.0625C18.625 27.0266 21.5683 23.4588 25.4719 22.7631C25.5978 22.7407 25.7271 22.7462 25.8507 22.7792C25.9743 22.8122 26.0891 22.8719 26.1871 22.9541C26.2851 23.0362 26.364 23.1389 26.418 23.2548C26.4721 23.3707 26.5001 23.4971 26.5 23.625V28.2942C26.5001 28.4598 26.4531 28.622 26.3646 28.762C26.2762 28.902 26.1498 29.014 26.0002 29.085C25.6465 29.2527 25.3443 29.5123 25.1251 29.8366C24.9059 30.1609 24.7778 30.5381 24.754 30.9288C24.7303 31.3195 24.8118 31.7095 24.9901 32.0579C25.1684 32.4064 25.437 32.7006 25.7677 32.91C26.0985 33.1193 26.4794 33.236 26.8706 33.248C27.2619 33.2599 27.6492 33.1667 27.9921 32.978C28.3351 32.7893 28.6211 32.512 28.8203 32.1751C29.0196 31.8382 29.1248 31.4539 29.125 31.0625V16.625C29.125 16.3929 29.2172 16.1704 29.3813 16.0063C29.5454 15.8422 29.7679 15.75 30 15.75H34.375C34.6071 15.75 34.8296 15.8422 34.9937 16.0063C35.1578 16.1704 35.25 16.3929 35.25 16.625C35.2514 18.0169 35.805 19.3515 36.7893 20.3357C37.7735 21.32 39.1081 21.8736 40.5 21.875C40.7321 21.875 40.9546 21.9672 41.1187 22.1313C41.2828 22.2954 41.375 22.5179 41.375 22.75Z" fill="#1C3A75"/>
</svg>
