<svg width="60" height="56" viewBox="0 0 60 56" fill="none" xmlns="http://www.w3.org/2000/svg">
<rect width="60" height="56" rx="12" fill="white"/>
<path d="M41.6433 27.3117C41.2467 20.545 35.0983 15.33 28.0167 16.4967C23.14 17.3017 19.2317 21.2567 18.4733 26.1333C18.03 28.9567 18.6134 31.6283 19.885 33.8333L18.8467 37.695C18.6134 38.57 19.4183 39.3633 20.2817 39.1183L24.085 38.0683C25.8117 39.0833 27.83 39.6667 29.9883 39.6667C36.5683 39.6667 42.0283 33.8683 41.6433 27.3117ZM35.6934 32.34C35.5884 32.55 35.46 32.7483 35.2967 32.935C35.005 33.25 34.69 33.4833 34.34 33.6233C33.99 33.775 33.605 33.845 33.1967 33.845C32.6017 33.845 31.96 33.705 31.295 33.4134C30.6183 33.1217 29.9534 32.7367 29.2884 32.2583C28.6117 31.7683 27.9817 31.22 27.375 30.625C26.7684 30.0183 26.2317 29.3766 25.7417 28.7116C25.2633 28.0466 24.8783 27.3817 24.5983 26.7167C24.3183 26.0517 24.1784 25.41 24.1784 24.8033C24.1784 24.4067 24.2484 24.0217 24.3884 23.6717C24.5284 23.31 24.75 22.9833 25.065 22.6917C25.4384 22.3183 25.8467 22.1433 26.2784 22.1433C26.4417 22.1433 26.605 22.1783 26.7567 22.2483C26.9083 22.3183 27.0484 22.4233 27.1534 22.575L28.5067 24.4883C28.6117 24.64 28.6933 24.7683 28.74 24.8967C28.7983 25.025 28.8217 25.1417 28.8217 25.2583C28.8217 25.3983 28.775 25.5383 28.6934 25.6783C28.6117 25.8183 28.5067 25.9583 28.3667 26.0983L27.9233 26.565C27.8533 26.635 27.83 26.705 27.83 26.7983C27.83 26.845 27.8417 26.8917 27.8533 26.9383C27.8767 26.985 27.8884 27.02 27.9 27.055C28.005 27.2533 28.1917 27.4983 28.4483 27.8017C28.7167 28.105 28.9967 28.42 29.3 28.7233C29.615 29.0383 29.9184 29.3183 30.2334 29.5866C30.5367 29.8433 30.7933 30.0183 30.9917 30.1233C31.0267 30.135 31.0617 30.1583 31.0967 30.17C31.1434 30.1933 31.19 30.1933 31.2484 30.1933C31.3534 30.1933 31.4234 30.1583 31.4934 30.0883L31.9367 29.645C32.0883 29.4933 32.2284 29.3883 32.3567 29.3183C32.4967 29.2367 32.625 29.19 32.7767 29.19C32.8934 29.19 33.01 29.2133 33.1384 29.2717C33.2667 29.33 33.4067 29.4 33.5467 29.505L35.4834 30.8817C35.635 30.9867 35.74 31.115 35.81 31.255C35.8683 31.4067 35.9034 31.5467 35.9034 31.71C35.8334 31.9083 35.7867 32.13 35.6934 32.34Z" fill="#1C3A75"/>
</svg>
